/* XPM */
static char *_b76eeacd71b4b2cb45fd388a04bc477LVh5xvUAcuyo7Hgw[] = {
/* columns rows colors chars-per-pixel */
"50 50 144 2 ",
"   c None",
".  c gray26",
"X  c #434343",
"o  c #444444",
"O  c gray27",
"+  c gray28",
"@  c #484848",
"#  c gray31",
"$  c #505050",
"%  c #515151",
"&  c gray33",
"*  c #555555",
"=  c #565656",
"-  c gray34",
";  c #585858",
":  c gray35",
">  c #5A5A5A",
",  c #5B5B5B",
"<  c gray36",
"1  c #5D5D5D",
"2  c gray37",
"3  c #5F5F5F",
"4  c #606060",
"5  c gray38",
"6  c #626262",
"7  c gray39",
"8  c #646464",
"9  c #656565",
"0  c gray40",
"q  c #676767",
"w  c #686868",
"e  c DimGray",
"r  c #6A6A6A",
"t  c gray42",
"y  c #6D6D6D",
"u  c gray43",
"i  c #6F6F6F",
"p  c gray44",
"a  c #717171",
"s  c gray45",
"d  c #747474",
"f  c gray46",
"g  c #767676",
"h  c gray47",
"j  c #797979",
"k  c gray48",
"l  c #7B7B7B",
"z  c gray49",
"x  c #808080",
"c  c gray51",
"v  c #838383",
"b  c #848484",
"n  c #868686",
"m  c gray53",
"M  c #888888",
"N  c #898989",
"B  c #8B8B8B",
"V  c gray55",
"C  c #8D8D8D",
"Z  c gray56",
"A  c #909090",
"S  c gray57",
"D  c #929292",
"F  c gray58",
"G  c #959595",
"H  c #9A9A9A",
"J  c #9B9B9B",
"K  c gray61",
"L  c #9D9D9D",
"P  c gray62",
"I  c #A0A0A0",
"U  c gray63",
"Y  c #A2A2A2",
"T  c gray64",
"R  c #A5A5A5",
"E  c gray65",
"W  c #A9A9A9",
"Q  c gray67",
"!  c #ACACAC",
"~  c gray69",
"^  c #B6B6B6",
"/  c #B7B7B7",
"(  c gray72",
")  c gray73",
"_  c #BBBBBB",
"`  c #BCBCBC",
"'  c gray",
"]  c gray75",
"[  c #C0C0C0",
"{  c gray76",
"}  c gray78",
"|  c #C8C8C8",
" . c gray79",
".. c #CACACA",
"X. c #CBCBCB",
"o. c gray80",
"O. c #CDCDCD",
"+. c #CECECE",
"@. c gray81",
"#. c #D0D0D0",
"$. c gray82",
"%. c #D2D2D2",
"&. c LightGray",
"*. c #D5D5D5",
"=. c gray84",
"-. c #D8D8D8",
";. c gray85",
":. c #DADADA",
">. c gainsboro",
",. c #DDDDDD",
"<. c gray87",
"1. c #DFDFDF",
"2. c gray88",
"3. c #E1E1E1",
"4. c #E2E2E2",
"5. c gray89",
"6. c #E4E4E4",
"7. c gray90",
"8. c #E6E6E6",
"9. c #E7E7E7",
"0. c gray91",
"q. c #E9E9E9",
"w. c #EAEAEA",
"e. c gray92",
"r. c #ECECEC",
"t. c gray93",
"y. c #EEEEEE",
"u. c #EFEFEF",
"i. c gray94",
"p. c #F1F1F1",
"a. c gray95",
"s. c #F3F3F3",
"d. c #F4F4F4",
"f. c gray96",
"g. c #F6F6F6",
"h. c gray97",
"j. c #F8F8F8",
"k. c #F9F9F9",
"l. c gray98",
"z. c #FBFBFB",
"x. c gray99",
"c. c #FDFDFD",
"v. c #FEFEFE",
"b. c white",
/* pixels */
"  v.v.v.v.v.v.v.v.v.v.v.v.v.v.v.v.v.v.v.v.v.v.v.v.v.v.v.v.v.v.v.v.v.v.v.v.v.v.v.v.v.v.v.v.v.v.v.v.  ",
"v.v.l.l.v.l.l.v.l.l.l.v.l.v.l.v.v.v.v.v.v.v.v.v.v.v.v.v.v.v.v.v.v.v.v.v.l.v.l.l.l.v.l.v.l.l.l.v.v.v.",
"l.h.s.h.s.h.h.h.s.h.s.h.h.h.s.v.v.v.v.v.v.v.v.v.v.v.v.v.v.v.v.v.v.v.v.l.h.h.s.h.s.h.h.h.s.h.s.h.h.l.",
"h.h.h.s.h.s.h.s.h.s.h.s.h.s.h.l.v.v.v.v.v.v.v.v.v.v.v.v.v.v.v.v.v.v.v.l.h.s.h.s.h.s.h.s.h.s.h.s.h.h.",
"s.h.s.h.s.h.s.h.s.h.s.h.s.h.h.l.v.v.v.v.v.v.v.v.v.v.v.v.v.v.v.v.v.v.v.h.s.h.s.h.s.h.s.h.s.h.s.h.h.s.",
"h.s.h.s.h.s.h.s.h.s.h.s.h.s.h.l.v.v.v.v.v.v.v.v.v.v.v.v.v.v.v.v.v.v.v.l.h.s.h.s.h.s.h.s.h.s.h.s.s.h.",
"s.h.s.h.s.h.s.h.s.h.s.h.s.h.s.h.v.v.v.v.v.v.v.v.v.v.v.v.v.v.v.v.v.v.v.h.s.h.s.h.s.h.s.h.s.h.s.h.h.s.",
"h.s.h.s.h.s.h.s.h.s.h.s.h.s.h.h.v.v.v.v.v.v.v.v.v.v.v.v.v.v.v.v.v.v.l.s.h.s.h.s.h.s.h.s.h.s.h.s.s.h.",
"s.h.s.h.s.h.s.h.s.h.s.h.h.s.h.s.v.v.v.v.v.v.v.v.v.v.v.v.v.v.v.v.v.v.l.h.s.h.s.h.h.s.h.s.h.s.h.s.h.s.",
"h.s.h.s.h.s.h.s.h.s.h.s.s.h.s.h.h.v.v.v.v.v.v.v.v.v.v.v.v.v.v.v.v.l.h.s.h.s.h.s.s.h.s.h.s.h.s.h.s.h.",
"s.h.s.h.s.h.s.h.s.h.s.h.h.s.h.s.h.l.v.v.v.v.v.v.v.v.v.v.v.v.v.v.v.h.h.s.s.h.s.h.h.s.h.s.h.s.h.s.h.s.",
"h.s.h.s.h.s.h.s.h.s.h.s.s.h.s.h.h.h.v.v.v.v.v.v.v.v.v.v.v.v.v.v.l.h.s.h.h.s.h.s.s.h.s.h.s.h.s.h.s.h.",
"s.h.s.h.s.h.s.h.s.h.s.h.s.h.h.s.h.s.l.v.v.v.v.v.v.v.v.v.v.v.v.v.h.s.h.s.h.s.h.s.h.s.h.s.h.s.h.s.h.s.",
"h.s.h.s.h.s.h.s.h.s.h.s.h.s.s.h.s.h.s.l.v.v.v.v.v.v.v.v.v.v.v.h.h.s.s.h.s.h.s.h.s.h.s.h.s.h.s.h.s.h.",
"s.h.s.h.s.h.s.h.s.h.s.h.s.s.h.s.h.s.h.s.h.v.v.v.v.v.v.v.v.l.h.h.s.h.s.h.h.s.h.s.s.h.h.s.h.s.h.s.h.s.",
"h.s.h.s.h.s.h.s.h.h.h.h.h.h.s.h.s.h.s.h.h.l.l.v.v.v.v.l.l.h.h.s.h.s.h.s.h.h.h.h.h.h.s.h.s.h.s.h.s.h.",
"s.h.s.h.s.h.h.y.} E H I ( 1.h.s.h.s.h.s.h.s.h.h.h.s.h.s.h.s.h.s.s.h.s.h.1./ I H I ..y.h.h.s.h.s.s.h.",
"h.s.h.s.h.h.4.G 7 = = = , a ( s.s.h.s.h.s.h.s.h.s.h.s.h.s.h.s.h.h.s.s.( a , , = , 1 G 4.h.s.s.h.h.s.",
"s.h.s.h.h.0.V , 7 N E E N 7 7 ] h.h.h.s.h.s.h.s.h.s.h.s.h.s.h.s.h.h.] 8 1 N E E V 7 , V 0.h.s.h.s.h.",
"h.s.h.s.h./ 1 7 ( l.y.7.y./ 1 d 1.h.s.h.s.h.s.h.s.h.s.h.s.h.s.h.h.4.d 1 ( y.7.y.l.( 7 1 / h.h.s.h.s.",
"s.h.s.h.y.n , D l.@.d 8 n :.N , / h.s.h.s.h.h.s.s.h.s.h.h.s.h.s.h./ , V 1.n t d @.l.D = N y.s.h.s.h.",
"h.s.s.h.4.y , ] l.n , 1 , E ~ , H s.h.s.h.s.h.h.h.h.h.h.s.h.s.h.h.H = ! I = , = x l.{ , y 4.h.s.h.s.",
"s.h.s.h.*.t , { h.z = , = K ~ = G s.h.s.h.s.4.@.....@.:.y.h.h.s.s.D , ! K , 1 , z h.{ , t *.l.h.s.h.",
"h.s.h.h.*.8 , H l.{ 8 , k $.V , Q h.h.h.7.Q k y t t t d D $.s.h.h.Q , D $.d 1 8 ] v.H = 8 *.h.h.h.s.",
"s.h.s.h.1.y , 8 ( l.:...4./ 1 7 @.h.h.s.H 7 7 1 1 1 1 1 7 k :.h.h.@.7 7 / 1...:.l.( 7 , y 1.h.h.s.h.",
"h.s.h.s.s.V , , 7 K ..} H 7 , n 0.h.h.0.z , , , , , , , , 8 ..h.h.0.n , 7 H } } H 7 , , V s.s.s.h.s.",
"s.h.s.h.h...7 , , , 1 , , , t @.h.h.h.y.N , , , , , , , , 8 *.h.h.h.@.t , , , , , , , 8 ..l.s.h.s.h.",
"h.s.h.s.h.s.! 1 = , , , = a { s.s.h.s.h.Q , , , , , , , , z 0.h.s.h.s.{ y , , , , , 1 Q s.h.h.s.h.s.",
"s.h.s.h.h.h.y.( k 8 7 t G *.h.h.h.h.h.h.4.x , , , , , , 8 { h.h.h.s.h.h.:.D t 7 7 k ( s.h.s.s.h.s.h.",
"h.s.h.s.s.h.h.h.7.$.@.:.s.h.s.s.h.4.:.h.h.1.V 7 , , , d { s.h.7.1.h.h.s.h.s.*...$.0.h.h.h.s.h.s.h.s.",
"s.h.s.h.s.h.s.h.h.h.h.h.s.h.h.s.] y 8 @.h.h.*.8 # & & Q s.h.7.n , K 7.h.h.s.h.h.h.h.s.h.s.h.s.h.s.h.",
"h.s.h.s.h.s.h.s.h.s.h.s.h.s.h.s.D . . , V D t + + . + = n G a + . 7 1.h.s.h.h.s.h.s.h.s.h.s.h.s.h.s.",
"s.h.s.h.s.h.s.h.s.h.s.h.s.h.s.h.1.d + . + . . + 7 d @ . . . . . , ] s.h.h.s.h.s.h.s.h.s.h.s.h.s.s.h.",
"h.s.h.s.h.s.h.s.h.s.h.s.h.s.s.h.h.4.D 1 & # , x $.7.I 8 & # = k ..h.h.s.s.h.s.h.s.h.s.h.s.h.s.h.h.s.",
"s.h.s.h.s.h.s.h.s.h.s.h.h.s.h.s.h.h.s.:...} *.y.h.h.h.4.@.} $.0.h.h.s.h.h.s.h.s.h.s.h.s.h.s.h.s.s.h.",
"h.s.h.s.h.s.h.s.h.s.h.s.s.h.s.h.s.h.h.h.h.h.h.h.s.h.h.h.h.h.l.h.s.s.h.s.s.h.s.h.s.h.s.h.s.h.s.h.h.s.",
"s.h.s.h.s.h.s.h.h.s.h.s.h.s.h.s.h.s.h.s.h.s.h.s.s.h.s.h.s.h.s.h.h.s.h.s.h.s.h.s.h.s.h.s.h.s.h.s.s.h.",
"h.s.h.s.h.s.h.s.s.h.s.h.s.h.s.h.s.h.s.h.s.h.s.h.h.s.h.s.h.s.h.s.s.h.s.h.s.h.s.h.s.h.s.h.s.h.s.h.h.s.",
"s.h.s.h.s.h.s.h.h.s.h.s.h.s.h.s.h.s.h.s.h.s.h.s.s.h.s.h.s.h.s.h.h.s.h.s.h.s.h.s.h.s.h.s.h.s.h.s.s.h.",
"h.s.h.s.h.s.h.s.s.h.s.h.s.h.s.h.s.h.s.h.s.h.s.h.h.s.h.s.h.s.h.s.s.h.s.h.s.h.s.h.s.h.s.h.s.h.s.h.h.s.",
"s.h.s.h.s.h.s.h.h.s.h.s.h.s.h.s.h.s.h.s.h.s.h.s.s.s.s.h.h.h.h.s.s.h.s.h.s.h.s.h.h.s.h.s.h.s.h.s.s.h.",
"h.s.h.s.h.s.h.s.s.h.s.h.s.h.s.h.s.h.s.h.s.y.0.7.7.7.7.0.0.y.s.h.h.s.h.s.h.s.h.s.s.h.s.h.s.h.s.h.h.s.",
"s.h.s.h.s.h.s.h.h.s.h.s.h.s.h.s.h.s.s.y.7.7.7.7.7.7.7.7.7.7.0.h.s.h.s.h.s.h.s.h.h.s.h.s.h.s.h.s.s.h.",
"h.s.h.s.h.s.h.s.s.h.s.h.s.h.s.h.h.s.0.7.7.7.7.7.7.7.7.7.7.7.7.7.y.s.h.s.h.s.h.s.s.h.s.h.s.h.s.h.h.s.",
"s.h.s.h.s.h.s.h.s.h.s.h.h.s.h.s.s.0.7.7.7.7.7.7.7.7.7.7.7.7.7.7.7.s.h.s.s.h.s.h.h.s.h.s.h.s.h.s.s.h.",
"h.s.h.s.h.s.h.s.h.s.h.s.s.h.h.s.0.7.7.7.7.7.7.7.7.7.7.7.7.7.7.7.7.7.y.h.h.s.h.s.s.h.s.h.s.h.s.h.h.s.",
"s.h.s.h.s.h.s.h.s.h.s.h.s.h.s.0.7.7.7.7.7.7.7.7.7.7.7.7.7.7.7.7.7.7.7.s.s.h.h.s.h.s.h.s.h.s.h.s.s.h.",
"h.s.h.s.h.s.h.s.h.s.h.s.h.h.s.7.7.7.7.7.7.7.7.7.7.7.7.7.7.7.7.7.7.7.7.0.s.h.s.h.s.h.s.h.s.h.s.h.h.h.",
"s.h.h.s.h.s.h.s.h.s.h.s.h.s.0.7.7.7.7.7.7.7.7.7.7.7.7.7.7.7.7.7.7.7.7.0.s.h.h.s.h.s.h.s.h.s.h.s.h.s.",
"  s.s.h.s.h.s.h.s.h.s.h.s.y.7.7.7.7.7.7.7.7.7.7.7.7.7.7.7.7.7.7.7.7.7.7.0.s.s.h.s.h.s.h.s.h.s.h.s.  "
};
