/* XPM */
static char *_4922905d4f44ab2b031269bb82371222QKxEoPNPpOVgRM3[] = {
/* columns rows colors chars-per-pixel */
"50 50 166 2 ",
"   c None",
".  c #1B2E35",
"X  c #1C3037",
"o  c #1E3239",
"O  c #20363E",
"+  c #233A43",
"@  c #2A3D44",
"#  c #253F48",
"$  c #27414A",
"%  c #29454F",
"&  c #2E4147",
"*  c #34464D",
"=  c #2A4751",
"-  c #2C4A55",
";  c #2E4E59",
":  c #2F505B",
">  c #31525D",
",  c #335662",
"<  c #365A66",
"1  c #3D5C62",
"2  c #375C68",
"3  c #395E6A",
"4  c #3B616D",
"5  c #3C6472",
"6  c #3F6977",
"7  c #3F6A78",
"8  c #44565C",
"9  c #455E5C",
"0  c #495C5D",
"q  c #5A5A5A",
"w  c #4A605C",
"e  c #526256",
"r  c #5A6351",
"t  c #6C6846",
"y  c #69694A",
"u  c #63664B",
"i  c #716C48",
"p  c #7F7141",
"a  c #626850",
"s  c #475E62",
"d  c #41646F",
"f  c #53646A",
"g  c #436672",
"h  c #456874",
"j  c #416C7B",
"k  c #4C6F7A",
"l  c #486B76",
"z  c #4D707E",
"x  c #53737E",
"c  c #6B6B6B",
"v  c #637378",
"b  c #68777D",
"n  c #69797F",
"m  c #777776",
"M  c #BA7C17",
"N  c #9D7428",
"B  c #8C7033",
"V  c #86723C",
"C  c #937635",
"Z  c #C47F11",
"A  c #817140",
"S  c #B38126",
"D  c #C7800F",
"F  c #DF8906",
"G  c #D98405",
"H  c #C7871D",
"J  c #D58C16",
"K  c #E28600",
"L  c #E58900",
"P  c #EB8D00",
"I  c #F18F00",
"U  c #EA920A",
"Y  c #F59504",
"T  c #FA9601",
"R  c #FF9900",
"E  c #537581",
"W  c #577984",
"Q  c #5C7B85",
"!  c #5D7E89",
"~  c #607C86",
"^  c #5F818C",
"/  c #64828D",
"(  c #678893",
")  c #688994",
"_  c #6D8D98",
"`  c #738D96",
"'  c #7E8C91",
"]  c #71919C",
"[  c #7696A1",
"{  c #7C9BA6",
"}  c #7E9DA8",
"|  c #858585",
" . c #8E8D8D",
".. c #818F94",
"X. c #8C9A9E",
"o. c #88969A",
"O. c #9A9999",
"+. c #8098A0",
"@. c #889FA7",
"#. c #809FAA",
"$. c #929FA3",
"%. c #84A3AD",
"&. c #94A1A5",
"*. c #8CAAB5",
"=. c #89A7B2",
"-. c #94B2BC",
";. c #98B5BF",
":. c #A2A2A2",
">. c gray66",
",. c #A9B4B8",
"<. c #B3B3B3",
"1. c #B8B7B7",
"2. c #9EBBC5",
"3. c #99B6C1",
"4. c #A0BDC7",
"5. c #ABBDC2",
"6. c #A1BEC8",
"7. c #A7C3CD",
"8. c #A9C5CF",
"9. c #B4C2C6",
"0. c #B7C7CC",
"q. c #ABC7D1",
"w. c #ADC9D2",
"e. c #B3CED8",
"r. c #B6D1DB",
"t. c #BBD6DF",
"y. c #BED9E2",
"u. c #C1CBCE",
"i. c #CAC9C9",
"p. c #C1C1C0",
"a. c #C7D0D3",
"s. c #CDD6D9",
"d. c #D7D7D7",
"f. c #C3DDE7",
"g. c #C8DFE7",
"h. c #C5DFE8",
"j. c #D3DEE1",
"k. c #CBE4EE",
"l. c #C7E1EA",
"z. c #DEE4E7",
"x. c #DDE7E9",
"c. c #DFE9EC",
"v. c #CFE9F2",
"b. c #D5EEF7",
"n. c #D8EFF7",
"m. c #D6EFF8",
"M. c #D7F0F9",
"N. c #DAF0F9",
"B. c #E3EAED",
"V. c #E7E7E8",
"C. c #E5EEF1",
"Z. c #E8EFF2",
"A. c #EAF2F5",
"S. c #E2F3FA",
"D. c #EBF7FB",
"F. c #EEF8FC",
"G. c #F6F6F6",
"H. c #F0F3F5",
"J. c #F3FBFD",
"K. c #F5FBFD",
"L. c #F6FCFF",
"P. c #F3FAFC",
"I. c #FDFFFF",
"U. c white",
"Y. c #FFFFFE",
"T. c #FBFCFD",
/* pixels */
"                                        X . X X . X . X . X                                         ",
"                                  X o o + $ = ; ; ; ; - % + O X o                                   ",
"                              . o # ; 4 j j j j j j j j j h 4 > $ o o                               ",
"                          X o $ 2 j j 6 5 4 4 3 3 3 3 4 4 5 j j j 3 = o .                           ",
"                        X O , j 6 4 2 2 , 2 < < 2 < < < < < < 2 3 7 j 2 # O                         ",
"                      X $ 5 j 4 2 2 2 , , 2 < < , < < 2 < 2 < < < < 4 7 h = o                       ",
"                    o = h 5 3 < 2 2 2 2 2 < < < 2 2 < < 2 < 2 < < < < 2 5 7 > O X                   ",
"                  o - 7 5 2 < < 2 , , 2 2 , < < 2 , < < < < < < 2 < < 2 2 3 j > o                   ",
"                X = j 5 < < < 2 < < < < < < < < 2 , , 2 2 2 , 2 < < < < < 2 3 j > o                 ",
"              X $ 6 4 2 < < < < < < < < < < < < 2 2 2 2 , 2 , 2 < < < < < < < 3 6 ; o               ",
"            . + 4 3 2 2 < < < < < < < < < < < < 2 2 , , < < 2 2 < < < < < < < < 3 5 $ o             ",
"            o 2 5 2 2 , < < < < < < < < < < , 2 , 2 2 2 < < < , < 2 < < < < < < 2 5 4 O             ",
"          X % 5 2 2 2 2 , 2 < < < < < < 2 2 2 2 < < < < < < < < < < < < 2 , , 2 2 2 4 ; o           ",
"          O 2 2 2 2 , 2 , 2 < < < 3 < < 1 < 2 , < < < < < < < < < < < < 2 2 2 2 2 , 2 4 + .         ",
"        X = 5 2 , , 2 2 2 2 2 < < < < < < < < < 2 < < < < < < < < < , 2 , 2 2 , 2 , 2 4 > X         ",
"        o 2 3 2 2 2 2 , 2 , , < < < < < < < < < < < < < 2 < < < < < < 2 , 2 2 , 2 2 2 2 3 +         ",
"      X $ 4 < 2 2 , 2 2 , 3 4 4 < , < < < < < < < < < < < < < < < < 2 4 3 2 2 2 2 2 , 2 3 = .       ",
"      X - 3 < < 2 2 , 4 _ 2.w.q.2.) 4 < < , < < < < < < 2 < < < E =.7.w.7.%.l < , 2 , 2 3 > o       ",
"      O > 3 < < , 2 g -.b.n.M.N.n.v.-.d 2 2 2 , < < < < , 2 < ` y.M.N.N.N.b.r.! 2 2 2 2 2 , O       ",
"      O 2 < < < 2 3 -.b.b.b.b.b.b.n.b.%.< , 2 2 < < < < 2 2 ! l.M.b.b.b.b.b.M.y.k , 2 , 2 3 # X     ",
"    . $ 2 2 , < , ^ k.b.b.b.b.b.b.b.M.f.E 2 , 2 2 2 2 , 2 3 6.N.b.b.b.b.b.b.b.N.*.2 2 2 , 2 % o     ",
"    . % 2 2 2 2 2 -.N.b.b.b.M.n.n.b.b.b.} , 2 2 , , 2 2 , E l.b.b.b.b.n.M.b.b.N.t.l , 2 2 2 = X     ",
"    X = 2 , 2 , 4 e.M.b.b.S.J.K.J.S.b.n.2.3 2 , 2 2 , 2 2 _ b.b.N.J.K.J.D.b.b.b.v./ , , 2 2 - X     ",
"    o = 2 2 , 2 z f.M.b.S.T.U.U.U.U.N.N.q.3 2 2 2 , 2 2 , ] b.N.K.U.U.U.U.D.b.b.b.[ 2 2 , 2 ; X     ",
"    X = 3 , 2 , W k.b.N.J.U.i.O.>.V.K.N.2.2 , 2 2 , < < , ( v.D.G.1.O.<.G.U.N.n.n.*., < < < ; X     ",
"    X % 2 2 2 , / v.b.N.U.d.c q q O.P.n.{ , 2 2 < 2 < 2 < E l.J.p.q q q <.U.S.b.N.;.2 < < < ; .     ",
"    X % , 2 2 , ( b.b.N.U.<.q q q m V.v.W 2 2 a p A i w < 4 q.J.O.q q q  .T.C.b.N.;.< < < < - O     ",
"    X $ 2 2 2 , ^ b.b.N.K.i.q q q | A.w.4 0 S Y T T T J y < } D.>.q q q &.Y.N.N.N.;.2 < < 2 = O     ",
"    . # , 2 2 , W k.b.b.S.H.:.c m a.S.] 9 H R R R R R R U y z l.x. .c | V.D.b.b.M.*.2 2 < < % X     ",
"    . + , 2 2 , l y.b.b.b.S.D.x.B.S.r.l C R R R R R R R R H w *.N.C.z.Z.S.n.b.b.b.[ , 2 , 2 $ X     ",
"      o > 2 2 , 3 4.N.b.b.b.M.M.M.v.] 9 J R R R R R R R R Y y j r.N.N.b.b.b.b.M.l.W , 2 < 2 + .     ",
"      . % , 2 2 , ] b.b.b.b.b.b.M.-.3 e U R R R R R R R R R V < ( k.b.b.b.b.b.N.8.4 , 2 < , O       ",
"      o $ 2 , < 2 g w.n.b.b.b.b.2.h < r F Y T R R R R T T P B < 2 ] l.M.b.b.b.k.( 2 2 2 2 ; o .     ",
"    X O = , < < < , E w.b.b.f.=.g , < w Z L L L P P P P L G t 2 2 , ) e.v.b.l.{ 2 2 , 2 , ; + o     ",
"  X O $ % > 2 , < < 2 g / ) E 3 , 2 2 2 t D F F K K K K G B 1 , 2 2 2 h / ) E < , , 2 2 , = % O .   ",
"  . + % % - , 2 < < 2 , 2 , , 2 < < < , < e B M Z Z M N u 1 2 2 , 2 , 2 , , 2 < 2 2 2 , > % % # O   ",
"  O $ % % % , 2 < < < < 2 2 2 , < < 2 2 < < < w 0 0 9 , < 2 , 2 2 2 2 2 2 , < < , 2 2 , - % % % O . ",
". O % % % % - 2 < < < < 2 , 2 2 < < , 2 < < < 2 2 2 2 2 , 2 2 2 2 , , 2 2 2 , 2 2 2 2 ; % = % % + X ",
". + % % % % = > < < < < , 2 , 2 2 < 2 , < , > < , , , , < 2 , 2 2 , 2 2 , , 2 2 2 , , = = % % % + X ",
"o O % % = % % = , < , 2 2 2 , 2 < < , 4 5 k Q / / / / / x d 3 , , 2 2 , 2 2 2 , 2 , - % % % % % + O ",
"o o % % % % % % ; < < < < < < , 4 x o.7.s.x.B.A.A.A.A.B.c.s.9.@.W 3 , 2 < < < , 2 - % % % % % % + . ",
"  o # = % = % % = = < < < , s / ,.x.F.J.P.P.P.P.P.P.P.P.J.J.P.P.B.0.` d 2 < < 2 ; % % % % % = # O . ",
"  X o $ % % % $ + O $ < 2 E 5.C.P.P.F.P.P.P.P.P.P.F.P.P.P.P.P.P.P.K.A.0.~ < 2 = O + # % % % # O O   ",
"    o o o O O o O . . $ Q j.K.J.P.P.P.P.P.P.P.F.P.P.P.P.P.F.P.P.P.P.P.K.B.` = o . . O O O O O X     ",
"        X X X         X f u.J.P.P.P.P.P.P.P.P.P.P.P.D.P.P.F.P.P.P.P.P.K.j.n O X       o . X X       ",
"                        . * $.B.T.P.P.P.F.P.P.P.P.P.P.P.P.P.P.G.P.K.A.,.8 .                         ",
"                          . O f ,.B.P.K.P.P.P.P.P.P.P.P.P.P.J.K.Z.9.v + .                           ",
"                              . O s o.u.B.A.J.K.K.K.K.G.F.B.a.&.f @ .                               ",
"                                  . . @ 8 v ' o.o.o.@...b 0 & X .                                   ",
"                                        . . . . . . . . . .                                         "
};
