/* XPM */
static char *_32bf21c234e4a5fbdd92381ef94a4445RklEg0SJMAkpBdk[] = {
/* columns rows colors chars-per-pixel */
"50 50 126 2 ",
"   c None",
".  c #335764",
"X  c #365A66",
"o  c #3A5B64",
"O  c #3A5E6A",
"+  c #3E616D",
"@  c #3E6775",
"#  c #3F6876",
"$  c #475E5C",
"%  c #5A5A5A",
"&  c #4D6159",
"*  c #556253",
"=  c #596553",
"-  c #64684E",
";  c #6D6B4A",
":  c #41636F",
">  c #436672",
",  c #466974",
"<  c #496B76",
"1  c #446C7A",
"2  c #4D6E7A",
"3  c #43707F",
"4  c #4E717C",
"5  c #52717C",
"6  c #646464",
"7  c #767676",
"8  c #7D7C7C",
"9  c #95722D",
"0  c #806D3A",
"q  c #82723F",
"w  c #A37625",
"e  c #B68225",
"r  c #CD810B",
"t  c #D48308",
"y  c #C2861F",
"u  c #E28700",
"i  c #E38800",
"p  c #EA8C00",
"a  c #E58E08",
"s  c #E2900F",
"d  c #EC9309",
"f  c #F49200",
"g  c #F99601",
"h  c #FF9900",
"j  c #447181",
"k  c #557682",
"l  c #597782",
"z  c #577984",
"x  c #5A7B85",
"c  c #62838E",
"v  c #678893",
"b  c #6A8A94",
"n  c #6E8E99",
"m  c #6F909B",
"M  c #72929D",
"N  c #7C959D",
"B  c #7595A0",
"V  c #7C9BA6",
"C  c #7E9DA8",
"Z  c #888888",
"A  c #908F8F",
"S  c #939393",
"D  c #9F9F9F",
"F  c #829AA2",
"G  c #83A2AC",
"H  c #8BA2A9",
"J  c #8DABB5",
"K  c #98ADB4",
"L  c #91AEB9",
"P  c #9CB0B6",
"I  c #94B1BC",
"U  c #A3A3A3",
"Y  c #A0B3BA",
"T  c #A6B8BF",
"R  c gray71",
"E  c gray",
"W  c #99B6C0",
"Q  c #9DBAC4",
"!  c #ABBDC3",
"~  c #A3BFC9",
"^  c #AFC1C6",
"/  c #A6C2CC",
"(  c #A8C5CE",
")  c #B0C1C6",
"_  c #BFC1C2",
"`  c #B8C8CD",
"'  c #ACC7D1",
"]  c #AECAD4",
"[  c #B1CDD6",
"{  c #BDCCD1",
"}  c #B4CFD9",
"|  c #B7D2DC",
" . c #B9D4DE",
".. c #BFDAE3",
"X. c #C3C3C3",
"o. c #C6C7C8",
"O. c #CBCACA",
"+. c #C0CFD4",
"@. c #C4D2D7",
"#. c #CCD9DD",
"$. c #D3D5D6",
"%. c #DADBDB",
"&. c #C3DDE6",
"*. c #D0DCE0",
"=. c #C7E1EB",
"-. c #CBE4ED",
";. c #DDE3E5",
":. c #CDE7F0",
">. c #CFE8F1",
",. c #D5EEF7",
"<. c #D8EFF7",
"1. c #D6EFF8",
"2. c #D9EFF8",
"3. c #D7F0F9",
"4. c #DBF1F9",
"5. c #E4E4E4",
"6. c #E1EBEE",
"7. c #EEEFEF",
"8. c #E5EEF1",
"9. c #ECF2F4",
"0. c #E2F4FB",
"q. c #ECF6FB",
"w. c #EFF9FC",
"e. c #F1F1F1",
"r. c #F2F9FB",
"t. c #FDFEFE",
/* pixels */
"  j j j j j j j 3 j j 3 j j 3 j j 3 j j j j j j j j j j j j j j 3 j j 3 j j j j j j j j j j j 3 3   ",
"j 1 # @ # @ @ @ @ # # # @ # @ # # @ @ # @ @ @ @ # > @ # @ @ @ @ # # # @ # # @ @ @ @ @ @ # > # # 1 3 ",
"# O X X X X X X X X X X X X X X X X X X X X X X X X X X X X X X X X X X X X X X X X X X X X X X O # ",
"O X X X X X X X X X X X X X X X X X X X X X X X X X X X X X X X X X X X X X X X X X X X X X X X X + ",
"X X X X X X X X X X X X X X X X X X X X X X X X X X X X X X X X X X X X X X X X X X X X X X X X X X ",
"X X X X X X X X X X X X X X X X X X X X X X X X X X X X X X X X X X X X X X X X X X X X X X X X X X ",
"X X X X X X X X X O X X X X X X X X X X O X X X X X X X X X X X X X X X X X X X X X X X X X X X X X ",
"X X X X X X X X X X X X X X X X X X X X X X X X O X X X X X X X X X X O X X X X X X X X O X X X X X ",
"X X X X X X X X X X X X X X X X X X X X X X X X X X X X X X X X X X X X X X X X X X X X X X X X X X ",
"X X X X X X X X X X X X X X X X X X X X X X O X X X X X X X X X X X X X X X X X X X X X X X X X X X ",
"X X X X X X X X X X X X X X X X X X X X X X X X X X X X X X X X X X X X X X X X X X X X X X X X X X ",
"X X X X X X X X X X X X X X X X X X X X X X X X X X X X X X X X X X X X X X X X X X X X X X X X X X ",
"X X X X X X X X X X X X . . . X X X X X X X X X X X X X X X X X X X X X . . X X X X X X X X X X X X ",
"X X X X X X X X X X + k c c z , X X X X X X X X X X X X X X X X . X > k c c k + X X X X X X X X X X ",
"X X X X X X X X O v ' =.>.>.=. .G > X X X X X X X X X X X X X X > C | =.>.>.=.' v O X X X X X X X X ",
"O X X X X X X O C -.3.1.1.,.1.3.,./ < X X X X X X X X X X X X < / ,.3.1.,.,.,.4.-.G O X X X X X X X ",
"X X X X X X X n :.1.,.,.,.,.,.,.,.1.I O X X X X X X X X X X O I <.,.,.,.,.,.,.1.1.,.M . X X X X X X ",
"X X X X X X , [ 3.,.1.,.,.,.1.,.,.3.-.c . X X X X X X X X X c -.<.,.,.,.,.,.,.,.,.3.| , X X X X X X ",
"X X X X X X b ,.,.,.1.,.1.2.1.1.,.,.3.I X X X X X X X X X X L 4.,.,.,.<.4.3.,.,.,.,.,.v X X X X X X ",
"X X X X X X J 3.,.1.,.0.r.t.t.r.4.,.3.[ : X X X X X X X X + ' 4.,.4.r.t.t.r.0.,.,.,.1.J X X X X X X ",
"X X X X X O ( 3.,.,.0.t.t.t.t.t.r.4.1...@ . X X X X X X X + ] 4.2.r.t.t.t.t.t.0.1.,.3.( O X X X X X ",
"X X X X X > | 3.,.4.t.t.$.U D O.t.w.1.] + . X X X X X X X O / 3.r.t.X.D U %.t.t.4.,.3. .> X X X X X ",
"X X X X X 2 &.,.,.0.t.5.7 % % 6 O.t.4.J X X X X X . X X X . J 3.r.X.6 % % 7 5.t.4.,.1.&.4 X X X X X ",
"X X X X X 4 &.,.,.0.t.R % % % % S r.,.c . X o = - - = o X . c ,.r.Z % % % % X.t.0.,.1.&.4 X X X X X ",
"X X X X X 4 &.,.1.4.t.E % % % % U r.} > . ; y d g g d y ; O @ [ r.A % % % % O.t.4.,.1.&.4 X X X X X ",
"X X X X X ,  .4.,.,.w.7.S % % 8 %.4.F . q d h h h g h h d q X V 0.$.7 % % S e.q.,.,.1.&.< X X X X X ",
"X X X X X O / 3.,.1.1.q.9.o._ ;.0...< - d h h h h h h h h d - 1 | 0.;.X.O.9.0.,.,.,.3.] + X X X X X ",
"X X X X X X G 3.,.,.1.,.4.0.0.4.>.B X e h h h h h h h h h h e o m >.4.4.0.4.3.1.,.,.3.L X X X X X X ",
"X X X X X X z -.1.,.,.1.,.,.,.3.W + & t h h h h h h h h h h a & O L ,.,.,.,.,.,.,.1.>.c o X X X X X ",
"X X X X X X + Q 3.,.,.,.,.,.3./ 1 . = d h h h h h h h h h h a = . @ Q ,.3.,.,.,.1.3./ + X X X X X X ",
"X X X X X X X k | 3.3.,.3.>.W , X X = t p f f h g g h f f p t * X X > L >.3.1.3.3. .k X X X X X X X ",
"X X X X X X X X k Q  ...( M + X X O o w u u u u u u p t u u w o X X X + b /  . .Q k X X X X X X X X ",
"X X X X X X X X X O > , + X X X X X X $ 9 r i i i p u u t 9 $ X X X X X X O , , O . X X X X X X X O ",
"X X X X X X X X X X X X X X X X X o X X X * 0 9 w w w 0 * X X X X X X X X X X X X X X X X X X X X X ",
"X X X X X X X X X X X X X X X X O . X X X X X X o X X . X X X X X X X X X O X X X X X X X X X X X X ",
"X X X X O X X X X X X X X X X X X X X X X X X X X X X X X X X X X X X X X X X X X X X X X X X X X X ",
"X X X X X X X X X X X X X X X X X O . X X X X X X X X X X X X X X X X X X X X X X X X X X X X X X X ",
"X X X X X X X X X X X X X X X X X X X X X X X X X X X X X X X X X X X X X X X X X X X X X X X X X X ",
"X X X X X X X X X X X X X X X X X X X X X X o X X X X X X X X X X X X X X X X X X O X X X X X X X X ",
"X X X X X X X X X X X X X X X X X X X X . . . O O X X X X . X X X X X X X X X X X X X X X X X X X X ",
"X X X X X X X X X X X X X X X X o . . + x F P ! ^ ) ! K N 5 O . . X X X X X X X X X X X X X X X X X ",
"X X X X X X X X X X X X X X X X . , F @.6.r.r.r.r.t.r.r.r.6.` N : o X X X X X X X X X X X X X X X X ",
"X X X X X X X X X X X X X X X + N #.r.r.r.r.r.r.r.r.r.r.r.r.r.9.+.b O X X X X X X X X X X X X X X X ",
"X X X X X X X X X X X X X X 2 ! 9.r.r.r.r.r.r.r.r.r.r.r.r.r.r.r.r.7.K : X X X X X X X X X X X X X X ",
"X X X X X X X X X X X X . 2 @.r.r.r.r.r.r.r.r.w.r.r.r.r.r.r.r.r.r.r.r.) , X X X X X X X X X X X X X ",
"X X X X X X X X X X X X 2 +.r.r.r.r.r.r.r.r.r.r.r.r.r.r.r.r.r.r.r.r.r.r.! : X X X X X X X X X X X X ",
"X X X X X X X X X X o > ` r.r.r.r.r.q.r.r.r.r.r.r.r.r.r.w.r.r.r.r.r.r.r.r.T + X X X X X X X X O X X ",
"X X X X X X X X X X + Y r.r.r.r.r.r.r.r.r.r.r.r.r.r.r.r.r.r.r.r.r.r.r.r.r.w.H O X X X X X X X X X X ",
"X X X X X X X X X X F e.r.r.r.r.r.r.r.r.r.r.r.r.r.r.r.r.r.w.r.r.r.r.r.r.r.r.6.c . X X X X X X X X X ",
"  X X X X X X X X 2 #.r.r.r.r.r.r.r.r.r.r.r.r.r.r.r.r.r.r.r.r.r.r.r.r.r.w.r.t.` : . X X X X X X X   "
};
