/* XPM */
static char *_23d324fd28c4761c2bc334d329833c9U7PhNUkrCpFfDnbd[] = {
/* columns rows colors chars-per-pixel */
"50 50 210 2 ",
"   c #E0F8CF",
".  c #E1F9D0",
"X  c #E3FAD2",
"o  c #E4FAD3",
"O  c #E3FAD3",
"+  c #E2F9D1",
"@  c #E1F8D0",
"#  c #E2FAD2",
"$  c #E2F9D2",
"%  c #DCF5CA",
"&  c #C3E6AF",
"*  c #A1D18A",
"=  c #8DC473",
"-  c #97CA7F",
";  c #B6DEA1",
":  c #D5F1C3",
">  c #E4FBD4",
",  c #E5FBD4",
"<  c #DFF7CE",
"1  c #DDF6CC",
"2  c #DCF6CB",
"3  c #DDF6CB",
"4  c #DEF7CD",
"5  c #DFF8CE",
"6  c #DEF6CC",
"7  c #DEF7CC",
"8  c #C6E8B2",
"9  c #A7D590",
"0  c #95C97C",
"q  c #9ECF86",
"w  c #BAE0A5",
"e  c #D6F2C4",
"r  c #E0F8D0",
"t  c #DBF5CA",
"y  c #D8F3C6",
"u  c #CEEDBC",
"i  c #C8E9B5",
"p  c #CCECB9",
"a  c #D2EFC0",
"s  c #C9EAB6",
"d  c #CAEAB6",
"f  c #D1EFBF",
"g  c #DBF5C9",
"h  c #B5DDA0",
"j  c #A7D490",
"k  c #AED998",
"l  c #D8F3C7",
"z  c #E1F9D1",
"x  c #D7F3C5",
"c  c #C5E7B2",
"v  c #BAE1A5",
"b  c #ADD897",
"n  c #B5DD9F",
"m  c #CAEAB7",
"M  c #C2E5AE",
"N  c #AFDA99",
"B  c #B0DA9A",
"V  c #C1E5AD",
"C  c #C5E7B1",
"Z  c #D0EEBE",
"A  c #CDECBA",
"S  c #B9E0A4",
"D  c #ACD796",
"F  c #A6D48F",
"G  c #9ACC82",
"H  c #A3D28C",
"J  c #BEE3AA",
"K  c #D3F0C1",
"L  c #CDECBB",
"P  c #B3DC9E",
"I  c #9CCE85",
"U  c #9ECF87",
"Y  c #B6DEA0",
"T  c #D9F4C7",
"R  c #DAF4C8",
"E  c #DFF7CD",
"W  c #E0F8CE",
"Q  c #BFE3AA",
"!  c #A4D38D",
"~  c #92C779",
"^  c #8AC371",
"/  c #CCEBB9",
"(  c #B4DC9E",
")  c #A2D18B",
"_  c #A5D38E",
"`  c #A6D490",
"'  c #BCE1A7",
"]  c #D3F0C0",
"[  c #CEECBB",
"{  c #D9F3C7",
"}  c #D1EFBE",
"|  c #C4E6B0",
" . c #96CA7D",
".. c #86C06C",
"X. c #7FBC64",
"o. c #BBE1A7",
"O. c #B3DC9D",
"+. c #AAD694",
"@. c #ABD794",
"#. c #AFD999",
"$. c #BFE4AB",
"%. c #D4F1C2",
"&. c #E6FBD5",
"*. c #CBEBB8",
"=. c #B9E0A5",
"-. c #A9D692",
";. c #99CC81",
":. c #8BC372",
">. c #82BE68",
",. c #7EBB63",
"<. c #ABD795",
"1. c #9ACD82",
"2. c #9FCF87",
"3. c #B4DD9E",
"4. c #CEEDBB",
"5. c #B2DB9C",
"6. c #9CCE84",
"7. c #D7F2C5",
"8. c #8AC370",
"9. c #88C16E",
"0. c #87C16E",
"q. c #86C06D",
"w. c #BDE3A9",
"e. c #91C778",
"r. c #8FC676",
"t. c #D0EEBD",
"y. c #89C26F",
"u. c #98CB80",
"i. c #D6F2C5",
"p. c #BDE2A9",
"a. c #8EC575",
"s. c #87C16D",
"d. c #92C87A",
"f. c #A5D48E",
"g. c #B7DEA2",
"h. c #B8DFA3",
"j. c #97CB7F",
"k. c #B4DD9F",
"l. c #93C87A",
"z. c #87C06D",
"x. c #BBE1A6",
"c. c #9CCD84",
"v. c #A0D089",
"b. c #CFEDBC",
"n. c #B8DFA4",
"m. c #91C779",
"M. c #92C879",
"N. c #A8D592",
"B. c #9FD087",
"V. c #B1DA9B",
"C. c #CAEBB7",
"Z. c #94C97C",
"A. c #D9F4C8",
"S. c #CFEEBD",
"D. c #C4E7B0",
"F. c #ACD896",
"G. c #D2EFBF",
"H. c #C8E9B4",
"J. c #C3E6B0",
"K. c #C2E6AE",
"L. c #BDE2A8",
"P. c #A2D28B",
"I. c #B1DB9C",
"U. c #DAF4C9",
"Y. c #C1E4AC",
"T. c #A5D48F",
"R. c #AAD794",
"E. c #ACD795",
"W. c #C7E8B3",
"Q. c #A2D18A",
"!. c #99CC80",
"~. c #A4D28D",
"^. c #BEE3A9",
"/. c #C9EAB5",
"(. c #C9E9B5",
"). c #C0E4AC",
"_. c #CBEBB7",
"`. c #BCE2A7",
"'. c #C7E9B4",
"]. c #8EC574",
"[. c #E5FBD5",
"{. c #BAE1A6",
"}. c #8AC270",
"|. c #CCEBB8",
" X c #9DCE85",
".X c #86C06B",
"XX c #A8D591",
"oX c #90C677",
"OX c #AAD693",
"+X c #C4E7B1",
"@X c #D2F0C0",
"#X c #B2DB9D",
"$X c #C7E8B4",
"%X c #8CC472",
"&X c #88C16F",
"*X c #BCE2A8",
"=X c #94C97B",
"-X c #A4D28C",
";X c #BFE3AB",
":X c #D4F0C2",
">X c #A0D088",
",X c #96CA7E",
"<X c #D7F3C6",
"1X c #93C87B",
"2X c #D5F1C2",
"3X c #D4F0C1",
"4X c #B2DC9D",
"5X c #9BCD83",
"6X c #8CC473",
"7X c white",
/* pixels */
"    . X o O + @ . # o o $ .                     + X % & * = - ; : + X @                     + O > , ",
"    < 1 2 3 4 5 < 6 2 2 7 <                     + X 2 8 9 0 q w e + X r                     4 1 % t ",
". < y u i p e 4 % a s d f g   .                 + + 1 p h j k & l + X + z .           + + 5 x u i c ",
"X 1 u v b n m g e M N B V :   + @               . . 4 : s V C Z % . X X X + @       @ X o 4 A S D F ",
"o 2 i b G H J K L P I U Y f   X .                     1 g T R 2 <   < 4 4 E W         .   e Q ! ~ ^ ",
"O 3 / ( ) _ n M J k * ` ' K   X .                     @ z + + +   g ] A [ : 1 . $ . 7 { } | b  ...X.",
"+ 4 : i o.O.b +.@.#.Y $.A T   z r                     . + $ X X   %.V O.n 8 T X &.$ R *.=.-.;.:.>.,.",
"@ 5 4 % %.& <.1.2.3.*.y 1 <                                 z X < 4.5.6.q h Z 5 , + 7.$._ ~ 8.9.0.q.",
"    + o 5 4.( * F w.e + O .                                 z O < *.<.e.r.! Q t.t 4 : w 1.9.y.e.u.1.",
"    + O . i.8 w p.p % X X .                                 + O < *.+.a.s.d.f.g.m y %.h.j.9.~ F k.w ",
"      @   3 y %.: R 4 @ @                                   z O < A k l.q.z.r.2.w f %.x.c.r.v.o.b.7.",
"            @ @ @                                           . X < Z n.* m.0...M.B 4.e & N.B.V.C.1 , ",
"          . + X X + r                                       @ + 5 7.s w -.Z.9.a.<./ A.S.Q S D.: @ &.",
"            r @ @                                             @   1 R a V ` e.~ F./ 1 2 : G.e %   + ",
"                                                                  . X   G.g.v.U P b.< X .           ",
"                                          . + X + .   . + X + .   . o X R H.h.; J.:   O O X + .     ",
"                                          @ . z . @   r . z . @     . . 1 e Z t.: %   . . . @       ",
"                                        < % y i.T 3 < 1 A.7.y t <         5 < < 5                   ",
"                                    . . 2 t.K.L.8 : 4 7.H.p.V 4.t @ .   @ + X X + @                 ",
"                                    + + R D.F.P.I.*.U.4.k.H +.V y . +     @ . . .                   ",
"                                    $ + T Y.T.;.9 V t.| R.;.H p.7.z X                               ",
"                                    + z g s h -.@.( =.n E.N.O.W.T . +                               ",
"                                    . @ 6 7.L & Y N.Q.j ( V p e 1 @ .                               ",
"                                          r 5 7.V ` !.~.^.: < @                                     ",
"                                          X > 4 / k.N.5./.1 o O @         . + + .     . + + . @     ",
"                                          + X   e C.D.s : < # +         @ + # X + @   . $ X + .     ",
"                                                4 % g % 7 5             5 4 3 3 4 < 5 4 1 2 1 <     ",
"                                    @ . + . r   . + $ + .           .   g f s (.G.% 4 e *.H.4.y E z ",
"                                    z # X + .   @ + + + .         @ +   : ).k k V e g d ( <.S 4.1 X ",
"                                    < 4 4 4 5                     . X   f Y q I P L K J H G b i 2 o ",
"            . . . @           z + E 7.b.p } T < @ @               . X   K ' ` * k J M n _ ) ( / 3 O ",
"          . + X X + r       @ O o 3 _.h.5.L.t.6 + .               r z   T A $.Y #.@.+.b O.o.i : 4 + ",
"            5 < < 5           + r : `.) G <.'.2 X +                     < 1 y *.3.2.1.<.& %.% 4 5 @ ",
"      @ 5 g %.S.} x 4 . + @ 6 R a D.<.l.].H | % X +                     . O + e w.F * ( 4.5 o +     ",
"    . + E K V Y =.m t o [.z T *.{.+.j.y.}.) & % O +                     . X X % p p.w 8 i.. O +     ",
"    z X 4 |.B  XP.{.%.. [.z : p.! d.9..Xa.j 8 % X +                       @ @ 4 R : %.y 3   @       ",
"    + X 1 H.XXoXl.OX+X%.4 < @X; u.0...a.6.#X*.3 # +                               @ @ @             ",
"    + O 1 $XF %X&X- <.*Xb.A.G.k.=Xs.oX-XY 8 %.4 + .                           r + X X + .           ",
"    + X 1 /.OXr...&Xl.! ;X:Xa ; j.a.>Xx.S.{ 3 5 @                                 @ @ r             ",
"    z X 4 A P 6.a...s.,Xh Z %.^.H  XB *.4 X z                                                       ",
"    . + E %.C k.H oXz.e.B b.l *.w ; & : z o +                                                       ",
"      @ 5 2 <X4.' * a.1XB b.1 R G.S.2X%   z @                                                       ",
"          . + 4 A I.6.q Y f   +   < 5                                                               ",
"          + o + 7.& P k.| e   O O X + .         . + $ + .   @ + $ + .                               ",
"          @ + . 2 3XA A :X%   + z . .           @ + + + .   @ . + + .                               ",
"                5 E 4 4 E W                   5 1 U.{ U.1 < 4 t T A.2 <                             ",
"                @ + X X + @               . . 7 3X'.V W.K % y *.M D.b.g   .                         ",
"                  . z z .                 + + % s 4Xj I.(.l Z w XXF.).e @ + @                       ",
"                                          $ X U.M ! =XP.V e *.b  .5X; K . X @                       ",
"                                          X X R Q q 6X6.^.: s XXa.=X5.G.. O .                       "
};
