/* XPM */
static char *c235ac9e83384a60a931e0f05a6fb7d7fUzMzHaA4SdBNXuh[] = {
/* columns rows colors chars-per-pixel */
"50 50 106 2 ",
"   c None",
".  c #363738",
"X  c #373838",
"o  c #3B3938",
"O  c #443D38",
"+  c #483F38",
"@  c #4D4138",
"#  c #534438",
"$  c #5B4738",
"%  c #5C493A",
"&  c #6C4425",
"*  c #704727",
"=  c #764A29",
"-  c #7B4E2B",
";  c #7F502C",
":  c #664C38",
">  c #6B4E38",
",  c #74563F",
"<  c #7E5738",
"1  c #3F3F40",
"2  c #464646",
"3  c #494746",
"4  c #4C4845",
"5  c #49494A",
"6  c #544C46",
"7  c #5D4E42",
"8  c #5B544E",
"9  c #545454",
"0  c #595551",
"q  c #595959",
"w  c #604F42",
"e  c #7D5E46",
"r  c gray39",
"t  c #6F6F70",
"y  c #747474",
"u  c #83532E",
"i  c #8C572F",
"p  c #8D582F",
"a  c #875530",
"s  c #8A5730",
"d  c #8E5A32",
"f  c #805739",
"g  c #845A3B",
"h  c #885B39",
"j  c #945E34",
"k  c #8F623F",
"l  c #976035",
"z  c #9B6236",
"x  c #966139",
"c  c #9E6439",
"v  c #A06637",
"b  c #A16639",
"n  c #A5693A",
"m  c #AA6C3C",
"M  c #B06F3D",
"N  c #B3723E",
"B  c #B8753F",
"V  c #9C6F4C",
"C  c #9E714F",
"Z  c #B97540",
"A  c #A27857",
"S  c #A57B5B",
"D  c #AB8365",
"F  c #AE886B",
"G  c #B39075",
"H  c #B39176",
"J  c #B49176",
"K  c #B59379",
"L  c #B6947A",
"P  c #B6957B",
"I  c #828383",
"U  c #898A8A",
"Y  c gray54",
"T  c #999999",
"R  c #98999A",
"E  c #9A9A9A",
"W  c #BA9B82",
"Q  c #BC9D84",
"!  c #BD9E86",
"~  c #BEA089",
"^  c #BFA28B",
"/  c #A7A6A6",
"(  c gray66",
")  c #B1B1B2",
"_  c #C5AA96",
"`  c #C6C1BD",
"'  c #CAC7C4",
"]  c #D7CFC9",
"[  c #D3D4D5",
"{  c #DCD6D1",
"}  c #DCD8D6",
"|  c gray86",
" . c #DDDAD9",
".. c #DBDBDC",
"X. c #EBE3DE",
"o. c #EEE5DF",
"O. c #EDE7E1",
"+. c #EEE6E0",
"@. c #EEE7E1",
"#. c #EFEFEF",
"$. c #F2EDE9",
"%. c #F2EEEB",
"&. c #F2EEEC",
"*. c #F4F2F0",
"=. c #F5F2F0",
"-. c #F4F3F3",
/* pixels */
"          & & & &                                                                 & & & &           ",
"        & - d s = &                         & & & & & &                         & = d d - &         ",
"      & u m M N n u &               & & & = ; u u u u - = & & &               & u m m N m u &       ",
"    & u m z j j n m d &         & * - j n N B Z B Z B B N n j - & &         & d m b j j c m u &     ",
"    = b z d d d d c m s &   & * u n B B B m m n n m m m m B B B c ; & &   * a Z z d d d d z b =     ",
"  & d z d d j d d d z n u & = z B B m n b b b c b b b b b b b m B B z = & ; n j d d d d d d c d &   ",
"  = z j d d d d d d d z z i M B n b b b b b b n n n b b b b b b b m Z m a z z d d d d d d d j z =   ",
"& ; z d d a - - u d d d n Z M n b b b b b n m m m m m m n b b b b c n m Z n d d d s ; - s d d x ; & ",
"& a j d s = = = - a d j M m b b b b b v n m m m m m m m m n b b b b b b m Z j s a - = = = a d j u & ",
"& u d a - = = = = = d Z m b b b b b b n m m m m m m m m m n n b b b b b b n Z d = = = - = - s d u & ",
"& - d u - = = = = u m m b b b b b b v n m m m m m m m m m m n c b b b b b b m n - = = = = = u d ; & ",
"& = s - = = = = = b m b b b b b b b v n m m m m m m m m m m n b b b b b b b b Z z - = = = - - s = & ",
"  * - = = = = = j m b b b b b b b b b n m m m m m m m m m m n c b b b b b b b b Z d = = = = = = &   ",
"    & * = = = - m m b b b b b b b b b b m m m m m m m m m m n b b b b b b b b b b n - = = = = &     ",
"      & * * * j m b b b b b b b b b b b V M m m m m m m m m n c b b b b b b b b z Z d * * & &       ",
"          & = n n b b b b z b b b b b b n m m m m m m m m n b b b b b c z b b b c n b * &           ",
"          & u m b b b b j j p p j z b b n m m m m m m m m n b b c z j d d j z b b b m ; &           ",
"          & j n b b j j p C S V j j b b b m m m m m m m n b b b j d V S V d j z b b n j &           ",
"          = b b b b j d J +.=.X.K d z b b n m m m m m m n b b z d W O.=.O.G d j b b b c =           ",
"          - n b b b p V +.[ Y T ] V j b b n n m m m m n b b z j A { T U [ o.V j c b v n -           ",
"        & u b b b b d G -.I q q / K p z b b n n m m n b b b z j ! ( q 9 I -.J s z b b b u &         ",
"        & d b b b z s L #.y q q T L j z b b b v v b b v b b z d ~ R q q y #.L d z b b n s &         ",
"        * d b b b j p A $.) r t ` S j c b b b v b b V n b b b p D ' t r ) %.A d z b b b d &         ",
"        * j b b b b d d ^ &... .^ d j b b b V , e e g h b b n j d _  .} $._ d d c b b n j &         ",
"        & j n b b b j p j S ! D j j z b b e 0 9 9 5 9 0 e b b z d j F Q D d d j c b c n l &         ",
"        & j n b b b j p d j s d d j b b j 8 5 5 5 5 5 5 8 j b b l d d s d d d z b b b b j &         ",
"        & j c b b b b j d j d d j c b b V 4 2 2 2 2 2 2 6 x b b c j d d d d l b b b b n j &         ",
"        & d n b b b b c j j j c b b b b c % 2 2 2 2 2 2 w b b b b b z j j z c b b b c n d &         ",
"        & d n c c b b b b b b b b b b b b f 3 1 2 2 2 2 g b b b b b b b b b b b b b b b d &         ",
"        & u b b b b b b b b b b b b b j b b e 3 2 2 3 e b b j b b b b b b b b b b b b b u &         ",
"        & ; b b b b b b b b b b c V : + h b j 7 O 1 % c b g + w c c b b b b b b b b b b ; &         ",
"          = c b b b b b b b b b b j + X + % # o . . o # % + o + z b b b b b b b b b b z =           ",
"          * j b b b b b b b b b b b f O . . . . # # X . X X O f b b b b b b b b b b b j *           ",
"          & d b b b b b b b b b b b b h $ + # > j c > # + % h b b b b b b b b b b b b s *           ",
"          & - c b b b b b b b b b b b b b j b b b b b c c c b b b b b b b b b b b b b = &           ",
"            = j b b b b b b b b b b b b b b b b b b b b b b b b b b b b b b b b b b j *             ",
"            & u b b b b b b b b b b b b b b v n b b b b b b b b b b b b b b b b b z a &             ",
"              = j b b b b b b b b b b b b b b v b b b b b b b b b b b b b b b b b j *               ",
"              & u c b b b b b b b b b b b b v v c b c b b b b b b b b b b b b b c - *               ",
"                & d b b b b b b b b b v j j z j j j j j j j b b b b b b b b b b d *                 ",
"                & = z b b b b b v z j j j j j j j j j l j j j z z b b b b b b l = &                 ",
"                  & - z b b b z j j j j j j j j j j j j j j j j j j z b b b z - &                   ",
"                    & - z b j j j j j j j j j j j z j j j j j j j j j z b z - &                     ",
"                      & u j j j j j j j j j j z j j j j j j j j j j j j j - &                       ",
"                        & = d j j j j j j j j j j j j j j j j j j j j j = &                         ",
"                          & = u j j j j j j j j j j j j j j j j j j u * &                           ",
"                            & & - p j j z j j j j z j j j j j j i - * &                             ",
"                                & * - u p j j j j j j j j d u - & &                                 ",
"                                    & & * = - ; - ; - - = & & &                                     ",
"                                          & & & & & & & &                                           "
};
