/* XPM */
static char *_f45ccc94a1a4f7a853f040e5e60c637xNZNvj6b1GREI5FJ[] = {
/* columns rows colors chars-per-pixel */
"50 50 208 2 ",
"   c #000C19",
".  c #000716",
"X  c #02131D",
"o  c #0B1D23",
"O  c #061720",
"+  c #0A2326",
"@  c #0C2528",
"#  c #072224",
"$  c #112329",
"%  c #142B2D",
"&  c #1A2C2F",
"*  c #18332F",
"=  c #1C2F32",
"-  c #143331",
";  c #1E3133",
":  c #143C34",
">  c #1B3D34",
",  c #1E3D39",
"<  c #0E3830",
"1  c #213C2F",
"2  c #213336",
"3  c #223C32",
"4  c #243A3A",
"5  c #293E3E",
"6  c #253739",
"7  c #194037",
"8  c #1C423A",
"9  c #1C4A3D",
"0  c #154437",
"q  c #2C4A37",
"w  c #23443D",
"e  c #224A3E",
"r  c #284235",
"t  c #31513C",
"y  c #2D4441",
"u  c #254C41",
"i  c #294A42",
"p  c #314544",
"a  c #354A47",
"s  c #384B48",
"d  c #245343",
"f  c #245945",
"g  c #2B5E4A",
"h  c #285947",
"j  c #3B524D",
"k  c #335F4E",
"l  c #3F5A51",
"z  c #2C644D",
"x  c #2E684F",
"c  c #27624A",
"v  c #2F6950",
"b  c #3B6654",
"n  c #316A51",
"m  c #396D56",
"M  c #3A7256",
"N  c #3C7359",
"B  c #32644C",
"V  c #425B53",
"C  c #4C5F58",
"Z  c #455853",
"A  c #40534F",
"S  c #456A47",
"D  c #4C7548",
"F  c #4A7446",
"G  c #4E625A",
"H  c #48695A",
"J  c #53665E",
"K  c #55685F",
"L  c #42775D",
"P  c #447A5C",
"I  c #49785D",
"U  c #58775A",
"Y  c #547E4E",
"T  c #576A61",
"R  c #5A6C63",
"E  c #566761",
"W  c #467B60",
"Q  c #4A7D63",
"!  c #5C7166",
"~  c #5F7A6A",
"^  c #4E6B60",
"/  c #607569",
"(  c #657B6D",
")  c #687A6F",
"_  c #568150",
"`  c #5A8752",
"'  c #528254",
"]  c #6C9D5C",
"[  c #71A55E",
"{  c #4D8064",
"}  c #54866A",
"|  c #58876C",
" . c #5D9268",
".. c #5F8E72",
"X. c #629867",
"o. c #6C8373",
"O. c #748979",
"+. c #708778",
"@. c #649273",
"#. c #6A9479",
"$. c #6D9B7C",
"%. c #6A9975",
"&. c #76967E",
"*. c #6F8C6D",
"=. c #6CA46B",
"-. c #77AC63",
";. c #75AD69",
":. c #76AA67",
">. c #7BB165",
",. c #7DB56C",
"<. c #77A879",
"1. c #82BD67",
"2. c #84BE69",
"3. c #82AB78",
"4. c #85B977",
"5. c #86C06C",
"6. c #89C46E",
"7. c #8CC473",
"8. c #8DC872",
"9. c #95CA7B",
"0. c #92C878",
"q. c #7E9381",
"w. c #759E82",
"e. c #7AA585",
"r. c #7EA989",
"t. c #78A582",
"y. c #819683",
"u. c #859986",
"i. c #899D89",
"p. c #8DA28C",
"a. c #84AD8D",
"s. c #8AB889",
"d. c #96B48F",
"f. c #94A992",
"g. c #92A790",
"h. c #8AB292",
"j. c #93BB97",
"k. c #9EB49A",
"l. c #97BC9B",
"z. c #90A68F",
"x. c #A1B69C",
"c. c #A2B89D",
"v. c #A5BDA1",
"b. c #9CCE84",
"n. c #97C688",
"m. c #9ED185",
"M. c #9CC499",
"N. c #A4D28C",
"B. c #A9DA8F",
"V. c #A5CD99",
"C. c #ACD994",
"Z. c #ABD698",
"A. c #B2DC9B",
"S. c #B0DC97",
"D. c #B8E39E",
"F. c #A2C4A2",
"G. c #ADC6A6",
"H. c #AAC9A7",
"J. c #AACCA8",
"K. c #B1C7A9",
"L. c #B4CAAC",
"P. c #AED2A6",
"I. c #B6DEA1",
"U. c #B3D4AF",
"Y. c #B8DBAB",
"T. c #B6D6B1",
"R. c #BDD3B3",
"E. c #BCDBB5",
"W. c #BFDDB8",
"Q. c #BBE1A5",
"!. c #BEE4A9",
"~. c #C0D6B6",
"^. c #C3D9B7",
"/. c #C6DDBA",
"(. c #C2E5AD",
"). c #C4E8AF",
"_. c #C4E5B3",
"`. c #C9EAB5",
"'. c #C5E2BB",
"]. c #CBE2BE",
"[. c #CDECBA",
"{. c #C6E9B2",
"}. c #D1EFBE",
"|. c #D1F3BB",
" X c #CDE7C1",
".X c #CCE8C2",
"XX c #D0E7C2",
"oX c #D5EDC6",
"OX c #D5EDC8",
"+X c #D8EFC8",
"@X c #D5F1C3",
"#X c #D9F3C7",
"$X c #D7F0C8",
"%X c #DCF5CB",
"&X c #DFF9CD",
"*X c #E0F8CF",
"=X c #E1F9CF",
"-X c #E0F8CF",
";X c #E1F9D0",
":X c #E1F8D0",
">X c #E2FAD1",
",X c #E4FCD2",
"<X c #E3FBD2",
"1X c #E9FFD6",
"2X c #E9FFD6",
"3X c #EAFFD8",
"4X c #EBFFD8",
"5X c #F1FFDD",
/* pixels */
"*X*X*X*X*X*X*X*X*X*X*X*X*X*X*X*X*X*X*X*X*X<X2X4X4X4X4X4X,X*X*X*X*X*X*X*X*X*X*X*X*X*X*X*X*X*X*X*X*X*X",
"*X*X*X*X*X*X*X*X*X*X*X*X*X*X*X*X*X*X*X*X*X*X+XoXoXoXoX+X%X*X*X*X*X*X*X*X*X*X*X*X*X*X*X*X*X*X*X*X*X*X",
"*X*X:X:X:X:X:X*X:X:X:X:X:X*X*X*X*X:X,X,X*X/.L.c.k.f.c.L./.*X,X,X=X*X*X*X*X*X*X*X*X*X*X*X*X*X*X*X*X*X",
"*X*X:X:X,X:X:X*X:X:X,X:X:X:X*X*X*X:X2X2X+XK.y.R C C R y.K.+X4X2X*X*X*X*X*X*X*X*X*X*X*X*X*X*X*X*X*X*X",
"*X*X*X%X&X&X&X*X&X&X&X%X&X:X:X:X*X*X,X*X'.f.K 5 $ & 5 E f./.:X>X*X*X*X*X*X*X*X*X*X*X*X*X*X*X*X*X*X*X",
"*X*X#X}.[.[.@X%X#XoX[.[.oX#X:X>X,X%X].R.x.y.K A p p A E 3.k.R.XX%X,X,X*X*X*X*X*X*X,X:X:X*X*X*X*X*X*X",
",X%X}.Y.S.I.`.#X@X(.A.A.(.@X:X3X2X+XK.y.) ) O.&.u.u.y.O.) ) y.v.+X4X2X:X*X*X*X:X,X:X:X:X:X*X*X*X*X*X",
",X%X`.Z.b.N.(.#X}.I.b.m.I.}.&X1X:X'.i.C p R g.~.XXXX~.g.E s C p.'.:X,X*X*X*X*X*X&X&X*X*X*X*X*X*X*X*X",
",X%X`.A.N.B.(.+X}.I.N.N.Q.@X&XoXR.k.( y 4 T c.$X4X:X].d.H 3 y ( k.R.XX&X:X,X*X%X@X}.[.oX%X&X:X:X*X*X",
",X%X|._.I.(.[.#X#X`.Q.!.|.&XoXK.u.~ j , u | H.%X=X}.I.3.H e w j / u.K.OX2X3X,X#X_.I.A.(.}.*X:X:X*X*X",
"*X*X%X#X@X@X#X*X&X#X@X@X&X&X/.p.G 5 , e b $.J.$X|.D.9.:.' B d , 5 J i./.:X2X:XoXQ.N.b.A.[.&X,X:X*X*X",
"*X*X*X*X:X:X*X*X:X>X,X%XoX^.k.( y - 8 b | h.E.@X{.B.2.>.X.} b 8 - y ( k.^.OX&X@X!.N.b.A.[.&X:X:X*X*X",
"*X*X:X,X,X:X:X:X,X3X3XOXK.i./ V i u b @.h.U..X$X{.N.6.4.s.h.#.H e w l ( i.K.oX&X|.!.D.(.@X&X:X:X*X*X",
"*X*X*X:X:X:X*X*X:X2X:X^.i.G y , u b @.l.W.OX%X#X!.m.7.b.I.T.F.@.b e 8 y G i.^.*X*X@X}.@X#X*X:X*X*X*X",
"*X*X*X*X*X*X:X*X%XOX/.x.( y % < d W e.T.%X1X1X#X_.m.8.m.Q.{.J.t.L d < % y ( k./.oX%X:X:X:X*X*X*X*X*X",
"*X*X*X*X*X,X2X,XXXK.i.) V w : 0 f L e.R.*X3X1X#X_.N.8.9.B.A.M.%.N f 0 : w V ) i.K.oX1X3X,X*X*X*X*X*X",
":X&X&X:X:X>X2X:X~.i.H y i u f f f W e.T.%X3X3X$X_.N.7.7.9.9.,. .m c f f d i p C u.~.:X3X,X&X:X*X*X*X",
"&X:X:X&X:X&X#X/.k./ 5 % : h n n N } a.T.%X,X>X%X!.N.7.5.5.5.;.X.{ N m n h > - 5 / k./.#X&X:X:X:X*X*X",
":X:X1X1X:XXXK.p.) V 4 : 9 g N } #.r.J..X%X3X,X#X{.N.7.1.5.5.4.<.t.$.} N g 9 : 8 V ) z.K.XX:X3X>X*X*X",
":X&X>X2X:XR.u.G a i d d f z L $.M.T..XOX:X,X>X%X!.N.7.5.>.5.n.Z.U.l.w.W c h d u i p J u.R.:X2X>X*X*X",
":X&X&X+X'.k.R 5 - 8 h z c v Q e.U.$X>X>X*X>X>X#X(.N.7.1.5.5.9.Q.[.U.e.Q x x x h 8 - 5 ! k.'.+X:X*X:X",
":X%X XL.f.o.V , : 9 z n v c W a.W.<X3X,X*X>X,X#X(.N.7.2.1.5.9.D.!.V.<.N z c x z 9 : , V o.f.K. X%X,X",
"2X+XL.y.J j i u d h z x c c W r.E.>X3X,X*X>X>X$X(.N.7.2.2.5.8.9.m.4.X.N z z B x h d u i j J u.L.+X2X",
"4XOXv./ 6 - 8 g B v v n v m } h.E.%X,X>X*X>X>X%X(.N.7.2.2.6.6.8.4.,.X.P m n n n v x h 8 - 6 ! v.oX2X",
"4XoXx.K % o : z v v v m Q ..r.F.'.*X,X*X*X>X,X%X(.N.7.2.5.5.5.5.2.4.<.$.@.Q N n n n z : o % K x.oX4X",
"4XoXx.E & o : g v v v W #.j.J.'.$X*X>X>X*X>X>X#X(.N.7.1.2.5.5.1.2.7.n.V.j.w.P v v n g 7 + % K x.oX4X",
"4XoXx.R ; @ 8 g v v v { r.T.$X*X*X*X*X*X*X>X>X#X(.N.7.2.2.5.2.1.5.b.A._.T.a.Q v c n g > @ = R x.oX4X",
"4XoXx.R = @ 7 g v c v { h.'.,X3X>X*X*X*X*X>X>X%X).N.7.1.2.5.2.2.5.9.A.(.P.r.Q z c v c 7 @ = R c.oX4X",
"3XoXc.R ; @ 7 g v c c { h.W.:X3X,X*X*X*X*X>X>X#X(.N.7.1.2.5.5.2.5.8.m.B.n.=.P c c n z > @ ; R c.oX4X",
"3XoXc.R = @ 7 g v v n } h.'.*X1X*X*X*X*X*X>X,X#X(.N.7.2.2.5.5.5.5.5.8.7.,.X.P m n n g 7 @ = R c.oX4X",
"3XoXc.R ; @ 0 g m W } t.F.'.*X,X*X*X*X*X&X,X,X&X{.B.8.5.2.2.5.5.5.5.5.5.,.=.@.| Q N g 7 @ = R c.oX4X",
"3XoXc.T = @ : g W %.a.H.W.oX*X,X*X*X*X*X*X,X1X=X`.C.0.5.5.7.2.5.5.5.5.5.4.n.j.a.w.W z : @ = R c.oX4X",
"3XoXc.R ; + : g } a.T..X%X:X:X*X*X*X*X*X*X:X:X#X(.N.2.2.2.2.2.5.5.5.2.5.0.Z._.U.h.} z : + ; R c.oX4X",
"3XoXc.R = + < z } j..X,X1X*X*X*X*X*X,X*X&XXX^.K.d.3.[ [ >.1.5.5.5.2.2.5.9.C.).Y.h.} g : + & R c.oX4X",
"4XoXx.R = # < h } j..X,X3X:X*X*X*X*X,X:XoXK.p.) K S S Y [ 1.6.6.5.5.2.5.0.N.Z.N.<.P h < + = R c.oX4X",
"4XoXc.R = @ : g | j.'.>X1X*X*X*X*X*X,X2XXXk.R p & % 1 j ` >.6.6.5.5.5.5.5.0.0.4.=.P z : + ; K c.oX4X",
"4XoXx.R = % i I $.F..X*X:X:X*X*X*X:X>X,X].g.Z $ .   $ q _ >.6.6.2.5.5.5.5.5.2.4.=. .W i % ; T c.oX4X",
"4XoXx.T ; 2 H t.F.E.OX*X,X*X*X*X:X:X2X,X].i.A O . . X r _ >.6.6.5.5.5.5.5.5.1.2.s.d.e.H 4 ; T x.oX4X",
"4XoXx.K 2 y o.G..X#X%X*X,X*X*X*X:X:X3X<X].g.Z $ .   $ q _ >.6.6.7.5.5.5.5.5.2.0.B.Y.G.+.p 2 K k.oX4X",
"4XoXx.J 2 s y.'.,X,X,X*X&X:X:X:X:X:X3X4X].g.Z $     o q _ >.6.6.2.5.5.5.5.2.5.9.S.{.R.&.a 2 K k.oX4X",
"2XoXk.J 2 s i.XX4X5X3X1X1X1X1X,X2X2X4X4XoXf.Z $     o q ` 2.8.8.8.6.6.6.6.6.6.0.B.D.Z.*.q ; J x.oX4X",
"3XoXk.J 2 s u.'.3X4X1X>X:X,X,X,X,X,X4X2XXXg.Z $     + q ` >.6.8.6.5.6.5.6.5.6.7.9.m.4._ 4 2 K x.oX4X",
"2XoXc.R 6 a O.K. X X/././.'././././.].].L.3.s $     o r F ] >.>.-.-.>.-.-.-.-.>.>.>.] F r 6 R c.OX4X",
"3XOXc.( i i H O.y.u.q.q.u.q.q.q.y.y.u.u.O.J 6 O     X * q S D D D F F F F F F F D F S q > e ( v.OX3X",
"2XOXH.#.k e i a s s a s a s s a s s s s p 6 $ X X X X o % 1 1 1 1 1 1 1 1 1 1 1 1 > 1 7 0 B #.G.+X3X",
"2X#XU.r.Q k i 4 2 2 2 2 2 2 2 2 2 ; 2 2 2 2 ; = & & = & = ; 2 ; ; ; ; ; ; ; 2 ; & ; 6 u B Q a.U.#X3X",
",X#X'.F.r.#.~ R J J J K K K T K J K J J J E R ! ! R U R R T E R T T R T R E E R K K ! ~ #.r.M./.#X>X",
":X&XoX'.U.H.v.x.k.k.x.k.k.k.k.k.k.k.x.x.x.c.c.c.c.v.c.c.x.x.x.x.x.x.x.x.x.x.x.x.x.x.c.v.H.U.'.OX&X:X",
"*X*X&X%XOX$XOXOXoXoXoXoXoXoXoXoXoXoXoXoXoXoXoXoXoXoXoXoXoXoXoXoXoXOXoXoXoXoXoXoXoXoXOXoX#X#X&X%X:X:X",
"*X*X*X1X1X2X3X2X4X3X4X4X4X4X4X4X4X4X4X4X4X4X4X4X4X4X4X4X4X4X4X4X4X4X3X4X4X4X4X4X4X4X4X4X2X2X>X:X*X*X"
};
