/* XPM */
static char *_f8f8f945d624dddf749acf005f5b73bm3iJ8i7BXe3LBrXs[] = {
/* columns rows colors chars-per-pixel */
"50 50 192 2 ",
"   c #01131C",
".  c #02181F",
"X  c #031C22",
"o  c #0A1B24",
"O  c #0A2226",
"+  c #0E2528",
"@  c #0F2929",
"#  c #072024",
"$  c #102027",
"%  c #13242B",
"&  c #142B2A",
"*  c #192B2F",
"=  c #18262E",
"-  c #0E312E",
";  c #1B342D",
":  c #1D382E",
">  c #15302C",
",  c #1C2D32",
"<  c #0F3330",
"1  c #1E3233",
"2  c #1D3C33",
"3  c #153A35",
"4  c #213C2F",
"5  c #223437",
"6  c #233E30",
"7  c #26393A",
"8  c #283A3C",
"9  c #1B4135",
"0  c #1D4539",
"q  c #264C3E",
"w  c #26463A",
"e  c #2D543D",
"r  c #295037",
"t  c #355B3D",
"y  c #385E3E",
"u  c #3E653F",
"i  c #2C4642",
"p  c #2F4A44",
"a  c #334544",
"s  c #334A46",
"d  c #3A4C4A",
"f  c #374648",
"g  c #245141",
"h  c #2C5546",
"j  c #3A5C42",
"k  c #34554B",
"l  c #3D514D",
"z  c #365C49",
"x  c #3E6441",
"c  c #36694D",
"v  c #3A6C4D",
"b  c #33664C",
"n  c #3A6252",
"m  c #3C7554",
"M  c #3F7855",
"N  c #42584D",
"B  c #445652",
"V  c #495D57",
"C  c #475954",
"Z  c #416A45",
"A  c #4E7749",
"S  c #456757",
"D  c #53655D",
"F  c #43735C",
"G  c #457959",
"H  c #537B5E",
"J  c #576962",
"K  c #596C63",
"L  c #4A7A60",
"P  c #5D7769",
"I  c #577865",
"U  c #66796E",
"Y  c #687B6F",
"T  c #62756A",
"R  c #697C70",
"E  c #677970",
"W  c #4F8356",
"Q  c #4E855B",
"!  c #528555",
"~  c #538C5A",
"^  c #588853",
"/  c #57915D",
"(  c #59935E",
")  c #64975A",
"_  c #639A5C",
"`  c #65975A",
"'  c #6EA15D",
"]  c #70A35E",
"[  c #558868",
"{  c #5F926C",
"}  c #5C8E71",
"|  c #6B9561",
" . c #6C8374",
".. c #648B74",
"X. c #648470",
"o. c #718676",
"O. c #748979",
"+. c #649375",
"@. c #689578",
"#. c #75947E",
"$. c #7B927F",
"%. c #66A163",
"&. c #69A161",
"*. c #75AD64",
"=. c #75AA69",
"-. c #7AB565",
";. c #7FB967",
":. c #7BB569",
">. c #7EB96A",
",. c #76B168",
"<. c #74A774",
"1. c #7DB078",
"2. c #83BD6B",
"3. c #83A97B",
"4. c #89BC7B",
"5. c #86C26C",
"6. c #89C46D",
"7. c #8CC86E",
"8. c #8DC375",
"9. c #8EC378",
"0. c #94C97A",
"q. c #95CC79",
"w. c #7B9481",
"e. c #7CA587",
"r. c #839A85",
"t. c #859986",
"y. c #81A589",
"u. c #86AC8D",
"i. c #8CA68D",
"p. c #93AD8D",
"a. c #95AA93",
"s. c #98AE96",
"d. c #93B594",
"f. c #93BD94",
"g. c #9EB39A",
"h. c #94BC99",
"j. c #A1B69D",
"k. c #A3B99E",
"l. c #A6BFA2",
"z. c #9CCD85",
"x. c #9FCE8A",
"c. c #9ED283",
"v. c #9CC29F",
"b. c #A2D28B",
"n. c #A4CC9C",
"m. c #A9D693",
"M. c #ACD994",
"N. c #AEDA99",
"B. c #ABD695",
"V. c #B3DC9D",
"C. c #B7E19E",
"Z. c #9EC3A0",
"A. c #AAC3A5",
"S. c #AFC6A8",
"D. c #AFCFAD",
"F. c #A7C7A4",
"G. c #B0C6A9",
"H. c #B5CCAD",
"J. c #AFD0AC",
"K. c #B6DEA0",
"L. c #B1D5AA",
"P. c #BBD4B3",
"I. c #BDDAB5",
"U. c #B5D6B1",
"Y. c #BBE1A6",
"T. c #BEE3AA",
"R. c #C3DBB8",
"E. c #C2E5AE",
"W. c #C0EDA6",
"Q. c #C6E5B5",
"!. c #C6EAB1",
"~. c #CAEBB6",
"^. c #C3E1BA",
"/. c #CAE3BE",
"(. c #CDECBB",
"). c #D1EFBD",
"_. c #D2F3BD",
"`. c #CCE6C1",
"'. c #CDE9C2",
"]. c #D4EDC6",
"[. c #D7EFC8",
"{. c #D8EFC8",
"}. c #D5F2C3",
"|. c #DDF5CC",
" X c #DFF8CD",
".X c #D9F5C7",
"XX c #E0F8CF",
"oX c #E3FBD2",
"OX c #E9FFD6",
"+X c #E8FFD5",
"@X c #ECFFD9",
"#X c #F0FFDD",
/* pixels */
"XXXXXXXXXXXXXXXXXXXXXXXXXXXXXXXXXXoXoXoX+X+X+X+X+X@X+X+X+X+X+XoXXXXXXXXXXXoXoXoXoXoXXXXXoXoXoXXXXXXX",
"XXXXXXXXXXXXXXXXXXXXXXXXXXXXXXXXXX|.|.|.[.[.[.[.].[.[.].[.[.|.|.XXXXXXXXXX|.|.|.|.XXoX|.|.|.|.XXXXXX",
"XXXXXXXXXXXXXXXXXXXXXXXXXXXXXXoXXX.X`.I.J.F.k.j.g.g.j.k.Z.D.I.`.|.XXoXXX|._.~.~.].|.|.}.~.~.(..XXXXX",
"XXXXXXXXXXXXXXXXXXXXXXXXXXXXXXoXXX].U.h.w...P J D D J P +.w.h.U.[.oXoXXX].T.N.N.E.}.|.~.K.V.K.(.|.oX",
"XXXXXXXXXXXXXXXXXXXXXXXXXXXXoXoXoX'.Z.@.F h i 1 1 1 1 i h L +.Z.'.oX+XXX'.K.c.z.V.(.].T.b.z.M.~.|.oX",
"XXXXXXXXXXXXXXXXXXXXXXXXXXoXoX+X+X'.h.L g i p d l f f s g g I d.'.@X@XoX}.Y.m.c.M.T.E.K.b.b.V.~.|.oX",
"XXXXXXXXXXXXXXXXXXXXXXXXoX+X+X@X@X'.i.S i k P w.t.t.w.T k 0 n a.'.@X@X+X|._.T.Y.N.M.m.N.V.Y.~.}.XXXX",
"XXXXXXXXXXXXXXXXXXXXXXXXXX|.XXoXXXR.r.l 1 V i.P.].].P.i.V 7 l w.R.XX+XXX|..X.X/.V.z.z.B.E.}.|.|.XXXX",
"XXXXXXXXXXXXXXXXXX XXX.X'.^.I.U.H.j.U 8 , V p.!.|.|.!.p.V , 8 U g.H.P.I.I.].|.}.E.b.x.K.'.XXoXoXXXXX",
"XXXXXXXXXXXXXXXXoXoXXX'.L.h.e.w. .K f * = N 3.V.T.T.N.3.N * = f K  .w.e.h.U.].|.(.T.Y.!.}.XXoXoXXXXX",
"XXXXXXXXXXXXXXXXoXoXXX^.h.+.F z w 7 % . & t ` 8.q.c.q.` t & . = 5 i z G @.Z.^.XXXX}.}.[. XXXXXXXXXXX",
"XXXXXXXXXXXXXXXXoX+XXXR.u.L g 9 : 4 & $ : N ( ;.7.7.2.( j : % & ; 2 0 q L e.I.XX+XoXXXXXXXXXXXXXXXXX",
"XXXXXXXXXXXXXXXXoX+XXXP.w.z 2 w t Z e w q v ` -.5.5.;.( Z q q t Z t w 9 z w.U.XXOXoXoXoXXXXXXXXXXXXX",
"XXXXXXXXXXXXXXXXoX+XoXH.O.s : t ^ ` ! v b W ' ;.7.6.2.' G v v ! ` ^ t ; s O.P.oX+XoXoXXXXXXXXXXXXXXX",
"XXXXXXXXXXXXXXXXoX+XXXP.O.p 3 t ^ ` ^ v c Q =.7.q.q.9.<.Q c v ^ _ ^ t 2 s o.P.|.OXoX|.XXXXXXXXXXXXXX",
"XXXXXXXXXXXXXXXXXX+XXXU.w.k 2 w Z Z j g h I 3.m.C.C.B.3.H h q j Z u w 2 k w.P.|.+XoXXXXXXXXXXXXXXXXX",
"XXXXXXXXXXXXXXXXXX+XoXI.y.F q 9 6 : & % 5 I p.Q.}..XR.d.H 7 & & : 6 2 g F y.I.XX+XoXXXXXXXXXXXXXXXXX",
"XXXXXXXXXXXXXXXXoX+XXX^.f.+.F h w 5 $ . , J j.].+X+X].j.D , . $ 5 w k m ..h.^.XXoXoXXXXXXXXXXXXXXXXX",
"XXXXXXXXXXXXXXXXXXoXXX'.L.h.y.#. .K a = , J j..X#X#X.Xj.D * = f J  .#.e.h.U.'.XXoXXXXXXXXXXXXXXXXXXX",
"XXXXXXXXXXXXXXXXXXXXXX|.'.I.I.U.H.s.T 8 , J g.[.#X@X{.j.D 4 8 T s.H.U.P.I.'.|.XXXXXXXXXXXXXXXXXXXXXX",
"XXXXXXXXXXXXXXXXXXXXXX|.]././././.S.o.a 5 D g.[.@X@X].g.D 5 a o.S.R./././.].|.XXXXXXXXXXXXXXXXXXXXXX",
"XXXXXXXXXXXXXXXXoX+XoX[.P.j.a.a.a.r.D 5 , D g.[.@X@X].g.D , 5 D r.a.a.a.j.P.{.+X+XoXXXXXXXXXXXXXXXXX",
"XXXXXXXXXXXXXXXXoXOXoX`.s.U C C B d 7 $ * D j.[.@X@X{.j.D , $ 5 d C B V Y s./.oX+XXXXXXXXXXXXXXXXXXX",
"XXXXXXXXXX|.oXXXXX|.].S.o.a % $ = * $ o 1 K j.}.@X@X{.k.K , o $ , , $ % a o.G.].XXXXXXXXXXXXXXXXXXXX",
"XXXXXXXXXXoXoX|.].P.k.$.B * o , d l s 3 i P A.[.#X#X.Xl.P i 2 i B s , o = C $.j.P.].XXoXoXXXXXXXXXXX",
"XXXXXXXXXXoX+X|.R.a.T N , o = C O.t.X.n n ..F.[.#X@X|.A...n n X.r.o.C = o , l T a.R.|.oXoXXXXXXXXXXX",
"XXXXXXXXXXoX+X|.H.o.a $   o 7 R l.I.d.[ F @.F.}.+X+X}.F.@.F [ d.I.A.R 8 o   + a o.H.|.+XoX XXXXXXXXX",
"XXXXXXXXXXoX+X|.S.U 5     O s $.P.].Z.} M } f.T.~.~.T.f.} F } v.'.P.w.k O     5 U S.|.+XoXXXXXXXXXXX",
"XXXXXXXXXXoX+X|.S.Y 5 . X 3 c e.I.`.Z.} m [ 1.x.M.M.z.1.[ m } v.'.I.e.n 3 #   5 U G.|.OXoXXXXXXXXXXX",
"XXXXXXXXXXoX+X|.G.Y 7 O - g G u.I.`.v.} F Q =.8.q.q.8.<.Q G } v.'.I.u.L g - O 7 R G.|.OXoXXXXXXXXXXX",
"XXXXXXXXXXoX+X|.G.Y 7 @ 9 v { v.^.'.D.y.@.<.4.z.c.c.0.4.<.@.e.D.'.^.v.{ c 9 & 7 Y G.|.OXoXXXXXXXXXXX",
"XXXXXXoXoX+X+X|.S.U 7 & r ! <.n.`.|.`.D.h.n.L.Y.Y.T.Y.L.F.Z.D.`.[./.b.=.W r & 7 U G.|.OXoXXXXXXXXXXX",
"XXXXXXXX XoX+X|.S.U 7 > y ` 9.V.(..X|.'.'.'.]._.}.}.}.].(.'.'.[.|.(.N.8.` t ; 7 U G.|.OXoXXXXXXXXXXX",
"oXXX.X].(._. X|.S.U 7 ; u _ 8.M.T.(._._._.(.).).(.(.).(.(._._._.(.T.M.9.' u ; 7 U G.|.OXoXXXXXXXXXXX",
"oX|.(.T.V.Y._.}.G.E 8 ; u ' 7.b.b.N.C.C.C.C.C.V.V.V.C.C.Y.V.C.V.N.m.c.7.' u * 7 U G.|.OXoXXXXXXXXXXX",
"oX|.~.N.z.m.!.].G.R 8 : u ' 5.q.0.0.0.q.0.0.0.0.0.0.0.0.0.0.q.q.0.0.q.6.' u : 7 U G.|.OXoXXXXXXXXXXX",
"oX|.~.N.c.m.!.}.G.Y 5 4 u ] 5.7.5.5.:.-.-.*.,.*.*.,.*.-.*.*.-.>.2.5.7.5.&.Z 4 7 U G.|.OXoXXXXXXXXXXX",
"oX|.].T.K.T._.}.G.E 7 * u ] 5.7.5.;.*.( ~ ~ ~ ~ / ~ ~ ~ ~ ~ ( *.-.5.7.5.] u ; 7 U S.|.OXoXXXXXXXXXXX",
"XXXX|.}.}.}. X|.G.E 7 4 Z ` 5.7.5.:.' ~ M m m M M m M m m M ~ ' >.5.7.5.] Z > 7 U S.|.OXoXXXXXXXXXXX",
"XXXXXXXX|.oX+X|.G.E 7 ; t ) 2.6.5.:.%.~ M m m m M M m m m M ~ | >.5.5.:.) y ; 7 U G.|.OXoXXXXXXXXXXX",
"XXXXXXoXoX+X@X|.S.E 7 & r ! | :.2.2.=.| { / / / ( ( ( ( ( ( | :.2.5.:.%.W q & 7 E G.|.OXoXoX|.oXXXXX",
"XXXXXXXXXXoX+X|.G.Y 7 % 9 c Q %.2.2.2.:.,.*.,.,.,.*.,.,.,.,.:.2.5.:.%.~ c 9 & 7 R G.|.OXoX XoX|.XXXX",
"XXXXXXXXXXoX+X|.G.Y 7 O - g c ~ ` *.-.*.] -.] -.*.] *.] *.*.=.*.*._ Q c q - O 7 Y G.|.OXoXoX|.oXXXXX",
"XXXXXXXXXXoXOX|.G.U 5   # - 0 e Z A A A A A A A A A A A A A A A A x e 0 - X   5 U G.|.OXoX|.oX|.XXXX",
"XXXXXXXXXXoXOX|.G.Y 5     # @ > 4 4 6 6 6 6 6 6 9 4 4 4 6 6 6 6 2 : > @ #     5 U S.|.+XoXoX|.oXXXXX",
"XXXXXXXXXXoX+X|.H.O.d * & * , 1 , 5 , , 5 , 5 , 5 4 5 , 1 , 1 1 1 1 , 1 * = * d O.H.|.+XoX XoX|.XXXX",
"XXXXXXXXXXoXoX|.R.s. .K J K K K J J J J D K J J J J J J K J J K J K K K K J K  .s.R.|.+XoXoX|.oXXXXX",
"XXXXXXXXXXXXoX|.].R.S.j.g.g.l.g.j.j.j.j.j.j.j.j.j.j.j.j.j.j.j.g.g.j.j.j.j.j.j.S.P.].|.oXXX|.oX|.XXXX",
"XXXXXXXXXXXXXXXX|.|.[.].].].].].].].].].].].].].].].].].].].].].[.[.].].].].].[.[.|.XXXXXXXXXXXXXXXX",
"XXXXXXXXXXXXXXXXXX+X+X@X@X@X@X@X@X@X@X@X@X@X@X@X@X@X@X@X@X@X@X@X@X@X@X@X@X@X@X+X+XoXXXXXXXXXXXXXXXXX"
};
