/* XPM */
static char *_02958136e324015ae540ab2d7a8ecaccdzCF3PZg4fBmqtu[] = {
/* columns rows colors chars-per-pixel */
"50 50 169 2 ",
"   c None",
".  c #786951",
"X  c #757F7D",
"o  c #80725B",
"O  c #24AB5D",
"+  c #28A95D",
"@  c #2FAA60",
"#  c #39AD64",
"$  c #26B362",
"%  c #28B966",
"&  c #7CA25C",
"*  c #7B8079",
"=  c #42AF67",
"-  c #48BF6A",
";  c #52B967",
":  c #5DB267",
">  c #5BB671",
",  c #6EA960",
"<  c #74BC7B",
"1  c #2CC46C",
"2  c #2DCB6F",
"3  c #35C86F",
"4  c #3EC46D",
"5  c #2ECC71",
"6  c #2FC77B",
"7  c #33CC72",
"8  c #3DCB74",
"9  c #41CB76",
"0  c #45CE79",
"q  c #4FCC7A",
"w  c #4EC977",
"e  c #52CC7B",
"r  c #5DC87A",
"t  c #5CD07F",
"y  c #66C77C",
"u  c #9E815F",
"i  c #999355",
"p  c #8C9958",
"a  c #AC894E",
"s  c #B6824D",
"d  c #B9824D",
"f  c #AD8155",
"g  c #A38E52",
"h  c #AC8258",
"j  c #A68358",
"k  c #B38252",
"l  c #BB8752",
"z  c #BD8954",
"x  c #8D816D",
"c  c #988369",
"v  c #868072",
"b  c #968A76",
"n  c #9E9079",
"m  c #A28662",
"M  c #A99575",
"N  c #AB997C",
"B  c #B29C7B",
"V  c #B5A07E",
"C  c #C3884F",
"Z  c #C0874F",
"A  c #C48A51",
"S  c #CA935B",
"D  c #C5935F",
"F  c #CC9A65",
"G  c #D09C66",
"H  c #CFA16E",
"J  c #D4A36D",
"K  c #D5A571",
"L  c #DAAA75",
"P  c #DAAE7A",
"I  c #D8A975",
"U  c #DEB27E",
"Y  c #E0B27E",
"T  c #337DAD",
"R  c #3B7DA7",
"E  c #2C7EB3",
"W  c #2A7FB8",
"Q  c #5D7E8E",
"!  c #487E9E",
"~  c #547E95",
"^  c #6A7F86",
"/  c #2FBF8C",
"(  c #30BC91",
")  c #2A81BB",
"_  c #32A8BB",
"`  c #788C92",
"'  c #5E91AD",
"]  c #5093BC",
"[  c #6B8FA0",
"{  c #6390A9",
"}  c #42A3AE",
"|  c #2FC08A",
" . c #5FD180",
".. c #76C680",
"X. c #75D387",
"o. c #2B85C2",
"O. c #2E89C6",
"+. c #2F8CCA",
"@. c #308FCE",
"#. c #3394D5",
"$. c #3C97D3",
"%. c #349BD6",
"&. c #3497DA",
"*. c #3498DB",
"=. c #33A0CB",
"-. c #4396CB",
";. c #4895C6",
":. c #838B86",
">. c #A49A89",
",. c #B4A48C",
"<. c #BBBF8D",
"1. c #BFB4A2",
"2. c #CEB58F",
"3. c #DEB482",
"4. c #CABE90",
"5. c #D2BB92",
"6. c #D6BB93",
"7. c #E2B987",
"8. c #E5BC8B",
"9. c #E8BF8D",
"0. c #8DC384",
"q. c #9BD793",
"w. c #90CC8A",
"e. c #A5C98E",
"r. c #B5C08C",
"t. c #BBCE96",
"y. c #BFD098",
"u. c #B1D899",
"i. c #ACD797",
"p. c #C4C090",
"a. c #DDC298",
"s. c #DDC096",
"d. c #CAD69E",
"f. c #E9C18E",
"g. c #EAC493",
"h. c #E6CA9E",
"j. c #EECA9A",
"k. c #E6C79A",
"l. c #F2CE9D",
"z. c #F3D09F",
"x. c #C6DBA0",
"c. c #D5DCA4",
"v. c #D7CBB8",
"b. c #D3C4AE",
"n. c #E7CAA0",
"m. c #EACDA2",
"M. c #E4D5A4",
"N. c #EED1A5",
"B. c #E4D9A7",
"V. c #E6DCA9",
"C. c #F3D3A5",
"Z. c #F9D7A7",
"A. c #F4D6A9",
"S. c #F4DBAB",
"D. c #FBDCAD",
"F. c #EAD6B7",
"G. c #F2DAB5",
"H. c #FDDFB0",
"J. c #F7DEB9",
"K. c #FFE0B1",
"L. c #FFE4BC",
"P. c #D4D0CA",
"I. c #E0D9CE",
"U. c #FFE6C1",
"Y. c #FEE9C9",
"T. c #FAEDD8",
"R. c #FFF0DA",
"E. c #FFF6E5",
"W. c #FFFCF6",
/* pixels */
"                                                                                                    ",
"                                                                      C A                           ",
"                                                                C A A A A                           ",
"                                                        d d d A A A A A A                           ",
"                                                  d d d d A A A A A A A A                           ",
"                                            d d d d A A A A A A A A A A A                           ",
"                                      d d d d d d A A A A A A A A A A A A                           ",
"                                  d d d d d d A A A A A A A A A A A A A A A                         ",
"                              d d d d d d C A A A A A A A A A A A A A A A A                         ",
"                            d d d d d d C A A A A A A A A A A A A A A A A A A                       ",
"                          d d d d d l C A A A A A A A A A A A A A A A A A A A                       ",
"                        d d d d d d A A A A A A A A A A A A A A A A A A A A A           K.K.        ",
"                      d d d d d d C A A C A A A A A C C A A A A A A A A C C C 8.K.D.D.K.K.K.K.D.K.  ",
"                    s d d d d d l A A C C C C C A C C C A A A A C C A C C C S j.K.S.A.H.K.K.K.K.K.  ",
"                    d d d d d d C C S J L Y U Y Y K J J G G J G G G J K L S S C.K.A.n.D.K.H.K.K.K.K.",
"                    d d d d d z K f.Z.D.D.Z.D.K.K.D.D.D.D.Z.g.Y P 8.Z.D.Z.L G Z.K.D.A.A.K.K.K.K.K.K.",
"                    d d d d l 7.D.K.K.f.J H H U A.K.K.K.K.8.F I 3.g.S.K.K.f.L D.K.K.D.H.K.H.D.K.K.  ",
"                    d d d d l g.K.K.K.z.j.z.j.7.C.K.K.K.K.g.j.S.F.T.L.K.K.A.g.H.K.K.D.A.N.N.N.      ",
"                      d d d l 8.K.K.K.K.U.J.J.L.K.K.K.K.K.K.J.N x b.W.U.K.K.D.K.K.K.K.D.D.          ",
"                      d d d l g.K.K.K.Y.P.b n F.K.K.K.K.K.K.J.n . >.W.Y.K.K.B.d.V.S.K.K.            ",
"                      d d d l l.K.K.K.E.P.o . v.K.K.K.K.K.K.K.b.,.v.T.K.K.K.y.# = > < 0.            ",
"                        d d D A.K.K.K.Y.E.1.,.G.K.K.K.K.K.K.K.K.K.K.L.K.K.K.x.1 % % $ O             ",
"                        d d 3.K.K.K.K.K.K.L.L.S.5.s.h.m.h.2.V s.K.K.K.K.K.K.x.5 5 5 5 5             ",
"                          F C.K.K.K.K.K.K.K.D.D.5.M M M M V 2.N.K.K.K.K.K.K.u.5 5 5 5 5             ",
"                          l.K.K.K.H.K.K.K.K.K.K.K.D.S.A.A.K.K.K.H.K.K.K.K.x. .5 5 5 7               ",
"                            K.K.K.K.K.K.K.K.H.H.K.K.K.D.D.D.S.A.M.i.q.w.X.0 5 5 5 7                 ",
"                          9 q.V.G.S.V.c.c.c.Z.m.h.h.h.a.a.s.s.p...7 5 2 5 5 5 5 5                   ",
"                      O O % 7 e  . .e 0 7 r 0.r.p.6.6.s.p.r.0.w 5 5 5 5 5 5 5 5 5                   ",
"                      y.> O $ 2 5 2 5 5 5 5 5 9 r y y r w 8 2 5 5 5 5 5 5 5 5 5 5                   ",
"                    K.K.B.< O % 2 5 5 5 5 5 5 5 5 5 5 5 2 7 5 5 5 5 5 7 5 5 7 5 5                   ",
"                  K.K.K.K.S.0.@ $ 1 5 5 5 5 5 5 5 5 5 5 5 5 5 5 5 5 5 5 5 5 5 5 5                   ",
"                K.K.K.K.K.K.S.e.# O 1 5 5 5 5 5 5 5 5 5 5 5 5 5 5 5 5 5 5 5 5 5 5                   ",
"            K.K.K.H.K.K.K.H.K.K.t.# $ 5 5 5 5 5 5 5 5 5 5 5 5 5 5 5 5 5 3 2 2 5 5                   ",
"          H.K.K.K.K.K.H.K.K.K.K.      7 5 5 5 5 5 7 5 5 5 5 5 5 5 5 6 / ( ( | 6 5                   ",
"          H.H.K.K.K.K.K.K.K.          5 5 5 5 5 5 5 5 5 5 5 5 5 5 | _ %.%.%.%.=._                   ",
"        K.S.C.C.A.D.H.K.              5 5 5 5 5 5 5 5 5 5 5 5 7 | =.*.*.*.*.*.*.*.*.                ",
"        K.K.D.A.A.A.H.D.              7 2 2 5 5 5 5 7 7 9 - ; : } *.*.*.*.*.*.*.*.*.                ",
"      K.K.K.K.H.H.H.H.S.n.            3 4 9 ; : , & p i g a Z m -.*.*.*.*.*.*.*.*.*.*.              ",
"      K.K.K.K.K.K.K.K.C.n.            i g a d d d k k h o A C :.&.&.&.&.*.*.*.*.*.*.                ",
"        H.K.K.K.K.K.D.N.            { c c b :.` [ ' ] ;.      ) O.@.#.#.&.*.*.*.*.*.                ",
"          K.K.K.K.H.                $.-.$.$.*.*.*.*.*.*.*.    ~ ] ) W W o.+.@.#.&.*.                ",
"                                  &.*.*.*.*.*.*.*.*.*.*.*.  d k o o X ^ ! R E W )                   ",
"                                ) o.o.#.*.*.*.*.*.*.*.*.*.  d d C C d d f u o ` Q                   ",
"                              f o ~ T W o.@.&.*.*.*.*.*.          d d d d d d d d d                 ",
"                              d d k c ^ R E ) @.#.*.*.                      d d d d                 ",
"                              d d d d s o X ' ) ) o.#.                                              ",
"                                    d d Z d f o ~ T                                                 ",
"                                        d d d d k h                                                 ",
"                                              d d d                                                 ",
"                                                  d                                                 "
};
