/* XPM */
static char *_bb0614a86b9457096d9095c04baf5830K7lyvC6PLNy3F0I[] = {
/* columns rows colors chars-per-pixel */
"50 50 171 2 ",
"   c None",
".  c #7D6E56",
"X  c #82735B",
"o  c #857762",
"O  c #23AC5E",
"+  c #29AD5F",
"@  c #36AD63",
"#  c #25B362",
"$  c #26B864",
"%  c #7DA25D",
"&  c #72A85F",
"*  c #4DBB69",
"=  c #5AB564",
"-  c #50BA68",
";  c #57B670",
":  c #66AE62",
">  c #67B976",
",  c #78BD7C",
"<  c #2CC56D",
"1  c #2DC96F",
"2  c #3BC56E",
"3  c #35C96F",
"4  c #30C26C",
"5  c #2ECC71",
"6  c #2EC77A",
"7  c #32CC72",
"8  c #3BCC74",
"9  c #45C06B",
"0  c #41CD77",
"q  c #47CE79",
"w  c #58C879",
"e  c #59D07F",
"r  c #63CA7E",
"t  c #72C67E",
"y  c #889C59",
"u  c #929756",
"i  c #9D9153",
"p  c #AE884E",
"a  c #B5834D",
"s  c #B9824D",
"d  c #AC8255",
"f  c #A78C50",
"g  c #AB825A",
"h  c #A3815C",
"j  c #B48253",
"k  c #BC8651",
"l  c #BE8955",
"z  c #9D866B",
"x  c #99886D",
"c  c #97856A",
"v  c #89897F",
"b  c #948874",
"n  c #9F917B",
"m  c #A58563",
"M  c #A28E71",
"N  c #A6957A",
"B  c #C1884F",
"V  c #C48A51",
"C  c #CB935B",
"Z  c #C3905C",
"A  c #CC9964",
"S  c #CD9D6A",
"D  c #CD9760",
"F  c #D19C66",
"G  c #D29F68",
"H  c #D6A56F",
"J  c #D2A572",
"K  c #D6AD7C",
"L  c #DBAD7A",
"P  c #DBAC77",
"I  c #DFB17D",
"U  c #E0B37F",
"Y  c #2B7DB3",
"T  c #5E7F8E",
"R  c #577E93",
"E  c #677E86",
"W  c #627F8A",
"Q  c #2EBB95",
"!  c #2B83BD",
"~  c #7E8B8C",
"^  c #53A988",
"/  c #5D91AF",
"(  c #438CB8",
")  c #5393BA",
"_  c #688FA3",
"`  c #77A1B4",
"'  c #62CF80",
"]  c #63D181",
"[  c #6BD284",
"{  c #79D388",
"}  c #2D85C0",
"|  c #3394D4",
" . c #3C97D3",
".. c #3396D8",
"X. c #3498DB",
"o. c #3A9BD8",
"O. c #4395CB",
"+. c #4B94C2",
"@. c #63A7CE",
"#. c #848B85",
"$. c #A79A85",
"%. c #B6A489",
"&. c #AABF85",
"*. c #B3AB9D",
"=. c #BBB8A4",
"-. c #C5AD88",
";. c #C8B08B",
":. c #DEB583",
">. c #CEBD91",
",. c #DABD94",
"<. c #D0B790",
"1. c #E1B683",
"2. c #E2B885",
"3. c #E4BD8B",
"4. c #CDBCA2",
"5. c #C4BEB4",
"6. c #8DCC89",
"7. c #84C382",
"8. c #96C588",
"9. c #9DC589",
"0. c #96C386",
"q. c #90D58F",
"w. c #A0C489",
"e. c #AAC089",
"r. c #ADCB91",
"t. c #AAD897",
"y. c #CFC193",
"u. c #DAC599",
"i. c #C7D19B",
"p. c #D3D39F",
"a. c #EAC18F",
"s. c #EBC493",
"d. c #EEC998",
"f. c #F1CC9B",
"g. c #DBC6A6",
"h. c #CAD9A0",
"j. c #D1DBA3",
"k. c #CECFBC",
"l. c #DCCDB7",
"z. c #DED2B4",
"x. c #E9CCA1",
"c. c #E8CEA8",
"v. c #EED1A5",
"b. c #E4DDA8",
"n. c #ECDDAB",
"m. c #EFD4AB",
"M. c #F4D4A5",
"N. c #F8D6A6",
"B. c #F4D6A9",
"V. c #F5DDAD",
"C. c #FBDDAE",
"Z. c #F8D7A8",
"A. c #ECD6B4",
"S. c #FDDFB1",
"D. c #F7DEB6",
"F. c #FFE0B1",
"G. c #FDE4BC",
"H. c #A8BFC0",
"J. c #DAD4CB",
"K. c #DFDCD7",
"L. c #EFDEC5",
"P. c #FDE5C1",
"I. c #FFE9C6",
"U. c #E6E2DC",
"Y. c #FFEED3",
"T. c #F0E4D3",
"R. c #FFF2DC",
"E. c #FFF0D6",
"W. c #F1ECE5",
"Q. c #FFF9EC",
"!. c #FDF9F3",
/* pixels */
"                                                                                                    ",
"                                                                                                    ",
"                                                                                                    ",
"                                                                                                    ",
"                                                                                                    ",
"                                                      s V V                                         ",
"                                              s s V V V V V                                         ",
"                                        s s s V V V V V V V                                         ",
"                                s s s s V V V V V V V V V V                                         ",
"                          s s s s s B V V V V V V V V V V V                                         ",
"                    s s s s s s B V V V V V V V V V V V V V                                         ",
"                s s s s s s s V V V V V V V V V V V V V V V V                                       ",
"            s s s s s s k B V V V V V V V V V V V V V V V V V                                       ",
"            s s s s s s V V V V V V V V V V V V V V V V V V V                                       ",
"          s s s s s s V V V V V V V V V V V V V V V V V V V V V                                     ",
"      s s s s s s s V V V V V V V V V V V V V V V V V V V V V V           F.F.F.                    ",
"      B s s s s s V V V V V V V V V V V V V V V V V V V V V V V       F.F.F.F.F.F.                  ",
"    s B s s s s B V Z C F G F F D C Z V V V V V V V V V V V V V   F.S.F.F.F.F.F.S.F.F.              ",
"    o V s s s l F U f.M.N.M.f.M.N.M.f.s.a.2.I P P I U U U D V U F.S.M.B.S.S.S.F.F.F.F.              ",
"    s a s s s L Z.F.S.s.J A A 3.F.F.F.F.F.F.2.S S S 3.C.F.U C f.F.F.B.v.M.S.F.F.S.S.                ",
"      B s s s 3.F.F.Z.L :.M.N.C.F.F.F.F.F.C.N.M.N.s.:.F.F.f.H Z.F.F.F.C.B.Z.F.F.B.v.                ",
"      o a s k 3.F.F.F.C.G.A.D.F.F.F.F.F.F.F.F.g.4.T.Y.F.F.Z.s.F.F.F.F.F.F.S.C.v.x.                  ",
"      V s s l d.F.F.F.Y.J.$.%.G.F.F.F.F.F.F.G.n . *.!.I.F.F.F.F.F.F.F.F.F.                          ",
"      V a a Z N.F.F.F.Q.k.. . l.F.F.F.F.F.F.G.$.. *.!.G.F.F.F.F.F.F.F.F.                            ",
"      V B V H Z.F.F.F.E.U.$.$.A.F.S.S.S.F.F.S.m.g.L.I.F.F.F.b.V.F.F.F.                              ",
"        o V d.C.F.F.F.F.I.P.F.G.Y.Y.R.R.>.N -.C.F.F.F.F.F.F.9.> i.V.                                ",
"        l U C.F.F.F.F.F.F.F.F.I.W.U.K.J.$.o ;.F.F.F.F.F.F.F.6.O @                                   ",
"          C.F.F.F.F.F.F.F.F.F.F.c.%.x x x <.C.F.F.F.F.F.F.F.[ < #                                   ",
"          n.F.F.F.F.F.F.F.S.F.F.S.C.B.M.C.F.F.F.V.F.V.V.j.q.8 5                                     ",
"        5 ] j.V.V.V.V.n.V.C.C.B.B.B.m.v.x.x.x.u.6.] ] e q 7                                         ",
"    5 5 5 5 0 ] ] ] ' e ' 9.y.y.,.,.,.,.u.>.e.r 5 5 5 5 5 5                                         ",
"    5 5 5 5 5 5 5 5 5 5 5 7 w t 0.&.w.0.7.w 7 5 5 5 5 5 5 5                                         ",
"  5 5 5 5 5 5 7 5 5 5 5 5 5 5 5 5 7 7 7 5 5 5 5 5 5 5 5 5 5                                         ",
"  < 1 1 < 5 5 5 5 5 7 5 5 5 5 5 5 5 5 5 5 5 5 5 5 5 5 5 5 5                                         ",
"O + + O + O O # # $ < 5 5 5 5 5 5 5 5 5 5 5 5 5 5 5 7 5 5 5                                         ",
"  8.r.w.8.7.t , > ; $ 7 5 5 5 5 5 5 5 5 5 5 5 5 5 5 5 5 5 5                                         ",
"  F.F.F.F.F.F.C.F.h.8 5 5 5 5 5 5 5 5 5 5 5 5 5 5 5 5 5 5 7                                         ",
"  F.F.F.F.F.F.F.F.t.7 5 5 5 7 5 5 5 5 5 5 5 5 5 5 5 5 5 5 5 6                                       ",
"  F.F.F.F.F.F.F.F.{ 5 5 5 5 5 5 5 5 5 5 5 5 5 5 5 5 5 5 5 5 Q X.                                    ",
"  F.F.F.F.F.F.F.b.' 5 5 5 5 5 5 5 5 5 5 5 5 5 7 7 2 2 9 * = ^ o.X.X.                                ",
"    F.F.F.F.C.S.V.j.6.0 5 5 3 2 2 * * = : & % y u i f j V o b O.X.| } Y W s s s                     ",
"    F.C.B.v.v.Z.S.S.m.&.% y u i f p a d a s k d m m x b b ~ _ O...} Y R h s s s                     ",
"    S.B.B.Z.C.F.S.F.C.K s j g m z b #.z     #.) +.O.O.X.O.X.X...! Y R d s s s                       ",
"    F.F.F.F.F.F.S.S.F.=./ ) +.O.O.o...        X.X.o.X.X.X.X. .Y Y R d s s s                         ",
"      F.F.F.F.S.F.F.V.J.o.X.X.X.X.X.X.            X.X.o.o.| ! Y T d s s                             ",
"        F.F.F.F.n.J.=.@.o.....X.......                X.O.! Y E d s s                               ",
"                ` ! ! Y ! ! } ! } ! }                     Y E V s s                                 ",
"                T ~ W W W W W T W W W                           s                                   ",
"              s s s s s s s s s s s o                                                               ",
"            s s s s s s o s B V s s B                                                               "
};
