/* XPM */
static char *_71e087dd2e8423be47c5073435a3164g4bN9M42OpYRIPNa[] = {
/* columns rows colors chars-per-pixel */
"50 50 166 2 ",
"   c None",
".  c #786950",
"X  c #757F7D",
"o  c #80725B",
"O  c #867760",
"+  c #8C7D65",
"@  c #907E63",
"#  c #24AD5E",
"$  c #28AC5F",
"%  c #37AC63",
"&  c #26B362",
"*  c #2BBA67",
"=  c #79807B",
"-  c #41AF67",
";  c #4BB26B",
":  c #43B068",
">  c #55B767",
",  c #51B46D",
"<  c #5EB672",
"1  c #77BE79",
"2  c #2CC46C",
"3  c #2BC96F",
"4  c #2DCC71",
"5  c #33CC72",
"6  c #3CCB74",
"7  c #4FC877",
"8  c #4BC774",
"9  c #5BD07F",
"0  c #6AC47C",
"q  c #A98A4F",
"w  c #AF864D",
"e  c #B5834D",
"r  c #B9824D",
"t  c #AC8255",
"y  c #A4815C",
"u  c #AA855D",
"i  c #B28252",
"p  c #B88A53",
"a  c #8E816C",
"s  c #9A8265",
"d  c #938168",
"f  c #818075",
"g  c #8C887B",
"h  c #9D8C73",
"j  c #A28565",
"k  c #A08F75",
"l  c #A59174",
"z  c #A6987F",
"x  c #C0874F",
"c  c #C3884F",
"v  c #C08750",
"b  c #C48A51",
"n  c #C88F57",
"m  c #C18E5A",
"M  c #CA945C",
"N  c #C3915D",
"B  c #CC9964",
"V  c #C99864",
"C  c #D29F69",
"Z  c #CEA06D",
"A  c #D6A46E",
"S  c #D3A572",
"D  c #D5A876",
"F  c #D9A974",
"G  c #D9AD7B",
"H  c #367DAC",
"J  c #3B7DA8",
"K  c #2D7EB3",
"L  c #2A7FB8",
"P  c #4B7E9B",
"I  c #5A7F91",
"U  c #567E93",
"Y  c #657F89",
"T  c #427DA1",
"R  c #2A82BD",
"E  c #3186BF",
"W  c #7C8C8D",
"Q  c #418DBE",
"!  c #5A92B3",
"~  c #5DD180",
"^  c #6BCC81",
"/  c #7BC780",
"(  c #6CD284",
")  c #77D387",
"_  c #7AD288",
"`  c #2D87C3",
"'  c #2E8AC7",
"]  c #2F8BCA",
"[  c #308FCE",
"{  c #3493D3",
"}  c #3997D5",
"|  c #3497D9",
" . c #3498DB",
".. c #4B94C3",
"X. c #4196CD",
"o. c #4392C5",
"O. c #808B89",
"+. c #858981",
"@. c #9D9280",
"#. c #A29683",
"$. c #A89A86",
"%. c #BABF8D",
"&. c #B7BF8C",
"*. c #BCB4A6",
"=. c #C8B08A",
"-. c #DFB481",
";. c #C6BF90",
":. c #CBB89B",
">. c #DBBF95",
",. c #E4B986",
"<. c #E5BD8C",
"1. c #E5BB88",
"2. c #CBBCA5",
"3. c #82C481",
"4. c #9CC68A",
"5. c #83D48B",
"6. c #8DD58E",
"7. c #9DD592",
"8. c #A3C188",
"9. c #B7C08C",
"0. c #AACE92",
"q. c #B8CE96",
"w. c #A5D695",
"e. c #B8DA9C",
"r. c #DDC197",
"t. c #DEC399",
"y. c #D9CD9B",
"u. c #C7D197",
"i. c #C4D69C",
"p. c #ECC694",
"a. c #EFC997",
"s. c #E2C59A",
"d. c #EFCA99",
"f. c #F2CD9D",
"g. c #F5D09E",
"h. c #DAC6A9",
"j. c #D5D5A0",
"k. c #DED7A4",
"l. c #CFC5B6",
"z. c #D8CBB7",
"x. c #E6CDA6",
"c. c #EED1A5",
"v. c #E5D7A5",
"b. c #F4D3A4",
"n. c #F9D6A5",
"m. c #F3D6A9",
"M. c #F4DBAC",
"N. c #FBDCAD",
"B. c #E0CDB0",
"V. c #EDD6B3",
"C. c #FEDFB0",
"Z. c #F5DAB0",
"A. c #FFE0B1",
"S. c #FFE5BD",
"D. c #FFE8C5",
"F. c #FFEACB",
"G. c #F8E4C5",
"H. c #E3E0DC",
"J. c #FCEEDA",
"K. c #FFF1DC",
"L. c #F2EFEB",
"P. c #FFF6E5",
"I. c #FEF7EE",
"U. c #F5F2EF",
"Y. c #F9F7F3",
"T. c #FAF8F4",
/* pixels */
"                                                                                                    ",
"                                                                                                    ",
"                                                                                                    ",
"                                                                                                    ",
"                                                                                                    ",
"                                                                                                    ",
"                                                                                                    ",
"              b v b x x                                                                             ",
"              b b b b b b x r r r r r r                                                             ",
"                b b b b b b b b b x r r r r r r r r                                                 ",
"                b b b b b b b b b b b b r r r r r r r r r r                                         ",
"                b b b b b b b b b b b b b n b v r r r r r r r r                                     ",
"                b b b b b b b b b b b b b b b b b v r r r r r r @                                   ",
"                c b b b b b b b b b b b b b b b b b b b r r r r e r c                               ",
"                b b b b b b b b b b b b b b b b b b b b b r r e r r r r r                           ",
"                b b b b b b b b b b b b b b b b b b b b b b r r r r r r r                           ",
"                b b b b b b b b b b b b b b b b c b b x c c b x r r i r r r                         ",
"                b b b b b b b c b b b b b b b M B A A A A A A M b r r r r r                         ",
"                b b c b b b x c c c b n M F p.f.n.f.d.d.n.C.N.b.p.p r r r r                         ",
"                  b c n n n M V A F 1.a.n.N.N.A.n.D S Z V <.N.C.A.Z r r r r                         ",
"                  b b ,.d.d.<.D A S d.A.A.A.A.C.C.M.N.N.p.d.C.A.A.<.r r r e                         ",
"                    b a.A.b.C G d.f.N.A.A.A.A.A.C.A.A.V.S.S.A.A.A.b.N r r r                         ",
"                    M f.A.C.Z.G.z.x.A.A.A.A.A.A.C.S.2.a *.I.S.A.A.A.G r r p d.A.A.                  ",
"                      n.A.A.P.H.a o h.A.A.A.A.A.C.D.$.. @.U.F.A.A.A.b.N r N n.A.A.A.A.              ",
"                      A.A.A.P.H.a o 2.A.A.A.A.A.C.A.h.$.l.K.S.A.A.A.A.p.p B n.A.A.A.A.C.C.          ",
"                      A.A.A.S.J.z.:.Z.N.c.m.D.D.F.F.G.C.A.A.A.A.A.A.C.A.p.r.C.A.A.N.m.m.N.A.        ",
"                        A.A.C.A.S.A.A.=.@ $.T.T.U.U.F.C.A.A.A.C.A.A.A.A.C.C.A.C.M.c.c.N.A.A.A.      ",
"                        A.A.A.A.A.A.A.c.l + $.@.#.:.C.A.C.C.A.A.A.A.A.A.C.A.N.C.M.n.C.A.A.A.A.      ",
"                        A.A.A.A.A.A.A.A.N.t.=.=.r.N.A.A.A.A.N.A.A.C.Z.M.M.A.m.N.C.A.A.A.C.A.A.A.    ",
"                          A.M.A.A.A.A.A.C.C.C.N.N.N.m.n.b.v.w.6._ ) 0 , 1 j.b.c.N.C.C.A.A.A.A.      ",
"                        4 9 ( 5.6.6.7.y.s.s.s.r.>.>.>.>.;.3.5 4 4 4 4 * # : 4.  m.A.A.A.A.A.        ",
"                    4 4 4 4 3 3 4 3 4 8 3.8.&.%.%.&.8.0 7 5 4 4 4 4 4 4 3 &         A.A.            ",
"                  4 4 5 4 4 4 4 3 & * 6 4 4 6 6 6 6 5 4 4 4 4 4 4 4 4 4 4                           ",
"                  4 4 4 4 4 4 2 & % 4.i.~ 4 4 4 5 5 4 4 4 4 4 4 4 4 4 4 4                           ",
"                  5 4 4 5 3 2 & - q.A.A.v.) ^ 0.q.0.) ^ 9 5 4 4 4 4 4 4 4                           ",
"                    4 4 4 2 # ; u.A.A.A.A.M.M.C.A.Z.A.M.M.) 4 4 4 4 4 4 4                           ",
"                      4 * $ < j.A.A.A.A.A.C.N.C.A.A.A.A.A.7.5 4 5 4 4 4 4                           ",
"                        # ; k.A.A.A.A.A.A.C.c.m.A.A.A.A.A.e.6 4 4 4 4 4 4                           ",
"                              e.M.A.A.A.A.C.b.c.A.A.A.A.A.w.5 4 4 4 4 4 4                           ",
"                              8 / u.M.A.A.A.m.b.A.A.A.A.y.0 > > > > > > >                           ",
"                              q q w V -.b.n.f.f.f.p.,.S p w e e w e w e e                           ",
"                              j j j j j l z k k h h g g +.g g +.O.O.O.O.W                           ",
"                              X.X.X.X.X.} | } } { E ` ] ....} }  . . . . . .                        ",
"                               . . . . . . . .[ R K W j u j !  . . .{ ] ' R K H                     ",
"                               . . . . . .{ [ K J X t r i g E [ ` R L K J P W + t r                 ",
"                                 . . . .{ R K P d r r e Y R R J P I X a y i @ x r r r p             ",
"                                   .| ' L K Y @ r r r     U + s t e r r r r r r r                   ",
"                                    ` K T X e r r r         i r r r r r                             ",
"                                      P d r r r                                                     ",
"                                        r r r                                                       "
};
