/* XPM */
static char *_68f25ce7bec44918178a3ddf5c390d679BeXJOEWSamt6z1[] = {
/* columns rows colors chars-per-pixel */
"50 50 136 2 ",
"   c None",
".  c #7B6C54",
"X  c #81725B",
"o  c #847660",
"O  c #8B7C63",
"+  c #25AB5E",
"@  c #2BAA5F",
"#  c #24AF60",
"$  c #2FAB60",
"%  c #34AC61",
"&  c #29BA67",
"*  c #33B567",
"=  c #76A55E",
"-  c #57B46F",
";  c #52BD73",
":  c #6AB976",
">  c #70BB79",
",  c #78BD7C",
"<  c #2BC16A",
"1  c #2DC96F",
"2  c #2ECC71",
"3  c #32CC72",
"4  c #3BCD75",
"5  c #44CA76",
"6  c #4CCF7A",
"7  c #53CA7A",
"8  c #5EC87B",
"9  c #57D07E",
"0  c #6FC67E",
"q  c #72C67E",
"w  c #B6824E",
"e  c #B9824D",
"r  c #BB8651",
"t  c #BE8A55",
"y  c #988668",
"u  c #948874",
"i  c #A78460",
"p  c #A1947F",
"a  c #A79374",
"s  c #C2884F",
"d  c #C48A51",
"f  c #C28E59",
"g  c #CB945C",
"h  c #C79662",
"j  c #CB9965",
"k  c #CC9C69",
"l  c #D29E67",
"z  c #CEA06D",
"x  c #D4A26C",
"c  c #D3A573",
"v  c #D7A975",
"b  c #DAAB76",
"n  c #DAAF7D",
"m  c #CAB07C",
"M  c #DCB17E",
"N  c #677E87",
"B  c #627F8A",
"V  c #2B83BE",
"C  c #5F91AC",
"Z  c #5792B5",
"A  c #678FA4",
"S  c #6490A7",
"D  c #6091AC",
"F  c #73CF84",
"G  c #76D387",
"H  c #3396D8",
"J  c #3298DD",
"K  c #A39988",
"L  c #A49784",
"P  c #B8A280",
"I  c #BFA885",
"U  c #BFBE8E",
"Y  c #ABA192",
"T  c #B7A992",
"R  c #BBAB92",
"E  c #BCB09E",
"W  c #B9B0A4",
"Q  c #C0A885",
"!  c #DDB381",
"~  c #CEBE91",
"^  c #D5BD93",
"/  c #E0B684",
"(  c #E4B986",
")  c #E4BC8B",
"_  c #C6B7A0",
"`  c #88C583",
"'  c #93C386",
"]  c #98C589",
"[  c #BEC08E",
"{  c #B8CE95",
"}  c #AFD898",
"|  c #B8D79A",
" . c #CCC997",
".. c #CCD39D",
"X. c #E7C08F",
"o. c #EBC391",
"O. c #E5C79C",
"+. c #E6C99E",
"@. c #EECA99",
"#. c #F1CD9D",
"$. c #DBC7A8",
"%. c #C8DBA0",
"&. c #D5D5A0",
"*. c #D1DAA2",
"=. c #DCDDA6",
"-. c #CBC6BD",
";. c #D6C7B0",
":. c #EACEA2",
">. c #F0CFA4",
",. c #EED1A5",
"<. c #E5DCA8",
"1. c #ECDDAB",
"2. c #F4D3A4",
"3. c #F8D6A6",
"4. c #F5D7A9",
"5. c #F4DDAC",
"6. c #FBDCAD",
"7. c #EDD8B9",
"8. c #E8D4B4",
"9. c #F4DAB4",
"0. c #FDDFB1",
"q. c #FFE0B1",
"w. c #FFE5BD",
"e. c #CFCAC2",
"r. c #DFDBD3",
"t. c #E1D9CB",
"y. c #F1DEC1",
"u. c #F6E3C6",
"i. c #FFE7C2",
"p. c #FEE9C7",
"a. c #FFEACA",
"s. c #F4ECDF",
"d. c #FFF3DE",
"f. c #FEF6EA",
"g. c #FFF9ED",
"h. c #F9F7F5",
/* pixels */
"                                                                                                    ",
"                                                                                                    ",
"                                                                                                    ",
"                                                                                                    ",
"                                                                                                    ",
"                                                                                                    ",
"                                                                      s d d                         ",
"                                                            e e e d d d d d                         ",
"                                                    e e e e d d d d d d d                           ",
"                                              e e e e e d d d d d d d d d                           ",
"                                      e e e e e e d d d d d d d d d d d d                           ",
"                                  e e e e e e s d d d d d d d d d d d d d d                         ",
"                            e e e e e e e s s d d d d d d d d d d d d d d d                         ",
"                          e e e e e e e s d d d d d d d d d d d d d d d d d                         ",
"                          e e e e e e d d d d d d d d d d d d d d d d d d d d                       ",
"                      e e e e e e r d d d d d d d d d d d d d d d d d d d d d                       ",
"                    e w e e e e s d d d d d d d d d d d d d d d d d d d d d d                       ",
"            q.q.    e w e e e e d s d s d d d d d s d d d d d d d d d d d d d     q.q.q.q.6.        ",
"      q.q.q.q.q.q.v w w e e e d d g x b b b b x k g g d d d d d d d d d d d s     q.q.q.q.q.q.q.    ",
"    0.q.q.q.q.0.q.! e e e e f b @.3.6.#.o.) #.6.6.3.2.#.o./ b b M ( ( ( x d f   6.q.q.q.q.q.q.q.    ",
"    q.q.q.q.0.0.q.( r e e w ! q.0.6.! j c c ) 0.q.q.q.q.q.) k k j n 6.q.o.d   :.6.q.q.q.q.q.q.q.    ",
"    q.q.q.0.0.0.q.X.r e e e ) q.q.6.) @.q.6.q.q.q.q.q.q.q.6.6.6.2.) 4.0.2.g   ,.6.6.6.6.6.6.q.q.    ",
"    q.6.2.:.,.4.0.@.t e e r X.q.q.q.q.p.7.9.q.q.q.q.q.q.q.q.$.T t.f.q.q.6.(     6.6.4.,.,.,.4.6.    ",
"      6.5.6.6.0.q.4.t e w t @.q.q.q.d.r.u L y.q.q.q.q.q.q.0.p . Y h.a.6.q.    q.q.q.q.q.0.0.0.q.    ",
"      q.q.q.0.q.q.6.z e e h 3.q.q.q.g.e.X o ;.w.q.q.0.q.q.0.T O W f.i.q.q.q.q.q.q.q.q.q.q.q.q.      ",
"        q.q.q.q.q.q.! r e ! q.q.q.q.a.s.E T 1.q.q.q.0.5.4.6.9.8.u.w.q.q.q.q.q.q.q.q.q.6.q.q.q.      ",
"          q.q.q.q.q.#.f h 4.q.q.q.q.q.q.w.q.p.f.g.f.f._ y I 0.q.q.q.q.q.q.5.q.q.q.q.q.q.q.q.        ",
"            q.q.q.q.6.m @.q.q.q.q.q.q.q.q.0.w.t.e.-.-.K O ^ q.q.q.q.q.q.5.] ' <.q.q.q.q.q.          ",
"              q.q.5.] : 9.q.0.q.q.q.q.q.q.q.q.,.I a a P :.0.q.q.q.q.q.q.<.; + - { 6.q.q.            ",
"                &.> + * | q.q.q.q.q.q.q.q.q.q.q.q.0.6.6.0.0.0.5.1.1.1.*.G 2 < # @ , ..              ",
"                % + & 1 6 } =.=.=.%.%.*.,.2.,.,.,.+.+.+.O.O. .F 9 9 6 4 2 2 2 1 & # @               ",
"                  & 2 2 2 4 4 4 4 4 4 5 ` [ ~ ^ ^ ^ ^ ~ ~ ' 7 2 2 2 1 1 3 2 2 3 2 <                 ",
"                      2 2 2 2 2 2 2 2 2 2 5 7 0 0 0 0 8 5 3 2 2 2 2 2 2 2 2 2 2                     ",
"                            2 2 2 2 2 2 2 2 2 2 2 2 2 1 1 3 2 2 2 2 2 2 2 2 2                       ",
"                            2 2 2 2 2 2 2 2 2 2 2 2 2 2 2 2 2 2 2 2 2 2 2 2                         ",
"                            2 2 2 2 2 2 2 2 2 2 2 2 2 2 2 2 2 2 3 2 2 2 2 2                         ",
"                            2 2 2 2 2 2 2 2 2 2 2 2 2 2 2 2 2 2 2 2 2 2 2 3                         ",
"                            2 2 2 2 2 2 2 2 2 2 2 2 2 2 2 2 2 2 2 2 2 2 2 2                         ",
"                            2 2 2 2 2 2 2 2 2 2 2 2 2 2 2 2 2 2 2 2 2 2 2 2                         ",
"                            2 2 2 2 2 2 2 2 2 2 2 2 2 2 2 3 2 2 2 2 2 2 2 2                         ",
"                            2 2 1 1 2 2 2 2 2 2 2 2 2 2 2 2 2 2 2 2 2 2 2 2                         ",
"                            = = = = = = = = = = = = = = = = = y = = = = = =                         ",
"                            i e w w s O e e w w w w e e w w O s w w w w e w                         ",
"                            Z D C A A Z C C C C A     C C C C C C C C C C S                         ",
"                            J J J J J J J J J J J     J H H J J J J J J J J                         ",
"                            H H H J H H J J J J H     J H H H H J J H H H H                         ",
"                            V V V V V V V V V V V     V V V V H V V V V V V                         ",
"                            . A B B B B B B . A B     A B B B . B S . A B N                         ",
"                        t w s e e e e e O s e e e     O s s e e O e e e e e e                       ",
"                        r w s O e e e e s s e e e     s e s e e e e e e e e O e                     "
};
