/* XPM */
static char *_162b4987ab44105a7a034249575e7ecfzw7CEVtL0KBofys[] = {
/* columns rows colors chars-per-pixel */
"50 50 144 2 ",
"   c None",
".  c #7D6E56",
"X  c #82735C",
"o  c #857761",
"O  c #8D7F6A",
"+  c #23AA5D",
"@  c #27AF60",
"#  c #2BAD60",
"$  c #36AE63",
"%  c #3DAF66",
"&  c #26B462",
"*  c #26B865",
"=  c #2ABF69",
"-  c #38B165",
";  c #76A55E",
":  c #5EB672",
">  c #7DA863",
",  c #6BBA77",
"<  c #77BD7C",
"1  c #2BC16B",
"2  c #2DC96F",
"3  c #2ECC71",
"4  c #33CC72",
"5  c #42CD77",
"6  c #4EC977",
"7  c #47CC78",
"8  c #4CCF7A",
"9  c #52CC7A",
"0  c #5ECC7D",
"q  c #6AC77D",
"w  c #62C67B",
"e  c #72C67E",
"r  c #B6824F",
"t  c #B9824D",
"y  c #B78250",
"u  c #BA8652",
"i  c #BD8955",
"p  c #9D8B6F",
"a  c #A49071",
"s  c #AA9575",
"d  c #B7A17F",
"f  c #C3884F",
"g  c #C08750",
"h  c #C48A51",
"j  c #C88F57",
"k  c #C6925C",
"l  c #C99158",
"z  c #CF9A63",
"x  c #CC9D6A",
"c  c #D39F69",
"v  c #D09C65",
"b  c #D2A26E",
"n  c #D6A976",
"m  c #D4AA7B",
"M  c #DCAD7A",
"N  c #D7A874",
"B  c #DDB17D",
"V  c #677E87",
"C  c #627F8A",
"Z  c #2681BF",
"A  c #2B83BE",
"S  c #5F91AC",
"D  c #678FA4",
"F  c #6090AB",
"G  c #6899B2",
"H  c #719BB0",
"J  c #6ACD81",
"K  c #7DC280",
"L  c #73D387",
"P  c #7BD389",
"I  c #3396D8",
"U  c #3298DD",
"Y  c #399BDB",
"T  c #429ED9",
"R  c #5BA4D0",
"E  c #64A7CE",
"W  c #A59B8B",
"Q  c #ACBE84",
"!  c #AEA290",
"~  c #B2A796",
"^  c #BEB7AC",
"/  c #D3AE80",
"(  c #C6BE8F",
")  c #C9B18B",
"_  c #DEB482",
"`  c #C8BE90",
"'  c #D5BC92",
"]  c #E4B986",
"[  c #E6BD8A",
"{  c #C6BAA9",
"}  c #98C589",
"|  c #94C487",
" . c #83D48B",
".. c #89D58D",
"X. c #91D38E",
"o. c #A4C188",
"O. c #A6C98E",
"+. c #ADC08A",
"@. c #AFCE93",
"#. c #A0D090",
"$. c #C8C592",
"%. c #D8CB9B",
"&. c #CDD39D",
"*. c #C4DA9F",
"=. c #D0D49E",
"-. c #EBC594",
";. c #EEC897",
":. c #E6CA9E",
">. c #ECCA9C",
",. c #F1CD9D",
"<. c #D6C3A7",
"1. c #DAD5A2",
"2. c #DDDCA6",
"3. c #CACCB9",
"4. c #D1CFB9",
"5. c #D8CAB5",
"6. c #E2CDAE",
"7. c #EFD2A5",
"8. c #E6DCA9",
"9. c #F3D3A5",
"0. c #F9D7A7",
"q. c #F3D6A9",
"w. c #F4DCAD",
"e. c #FADCAD",
"r. c #E1CDB1",
"t. c #E1D3B5",
"y. c #E9D6BA",
"u. c #F0D8B5",
"i. c #FEDFB1",
"p. c #FFE0B1",
"a. c #FCE2BB",
"s. c #82B2C7",
"d. c #B3C5C1",
"f. c #DFDCD6",
"g. c #E5D8C5",
"h. c #FFE6C1",
"j. c #FFEBCC",
"k. c #F1E3CD",
"l. c #E6E4DF",
"z. c #FBEDD8",
"x. c #FFF5E5",
"c. c #FFF9EF",
"v. c #F9F6F1",
"b. c #FFFAF1",
/* pixels */
"                                                                                                    ",
"                                                                                                    ",
"                                                                                                    ",
"                                                                                                    ",
"                                                                                                    ",
"                                                                                                    ",
"                                                                                                    ",
"                                                                  t t g h h h h                     ",
"                                                        t t t t h h h h h h h                       ",
"                                                t t t t t i f f h h h h h h h                       ",
"                                        t t t t t t t h h h h h h h h h h h h                       ",
"                                  t t t t t t t t h h h h h h h h h h h h h h                       ",
"                              t t t t t t t f h h h h h h h h h h h h h h h h                       ",
"                            t t t t t t t h h h h h h h h h h h h h h h h h h                       ",
"                          t t t t t t t h h h h h h h h h h h h h h h h h h h h                     ",
"                        t t t t t t g h h h h h h h h h h h h h h h h h h h h h                     ",
"                      t t t t t t f h h h h h h h h h h h h h h h h h h h h h h                     ",
"                      t t t t t t h h h h h h h h f f h h h h h h h h h h h h h                     ",
"                      t t t t t j b M ] ] -.-.] B N z j j f f h h g h h h h h h                     ",
"                    t t t t t N ,.e.e.0.[ _ B ;.p.p.0.,.;.[ B b c c v z z j h h                     ",
"                    t t t t u -.p.p.9.c x B _ -.p.p.p.p.p.e.] b x n -.q.0.B h                       ",
"                    t t t t i ,.p.p.e.>.e.p.p.p.e.p.p.p.p.i.,.,.>.m n e.p.] j                       ",
"                      t t t k 0.p.p.p.j.k.t.u.a.p.p.p.p.p.p.p.6.t.z.p.p.p.;.                        ",
"                      t t t m e.p.p.a.b.~ . ! a.p.p.p.p.p.e.5.p p l.x.p.p.e.                        ",
"                      t t i -.p.p.p.h.v.W X ! a.p.p.i.p.p.a.<.o X f.x.p.p.p.                        ",
"                      u t M p.p.p.p.p.j.g.{ y.p.p.a.a.i.q.e.i.<.5.z.h.p.p.p.                        ",
"                        b 9.p.p.p.p.p.p.p.p.a.x.c.b.b.4.p s q.p.a.p.p.p.p.p.                        ",
"                        w.p.p.p.p.p.p.p.p.p.a.g.{ ^ ^ W X ! e.p.p.p.p.p.p.p.                        ",
"                        p.p.p.p.p.p.p.p.i.p.p.q.) s a s ' 0.p.p.p.p.p.p.p.*.                        ",
"                         .2.w.p.p.p.i.p.i.i.e.p.p.e.e.e.i.i.p.p.p.w.p.w.*.8 3                       ",
"                    3 3 3 8 L P P P L #.:.:.:.>.:.:.:.:.:.>.%.X.L P P L 5 3 3 3 4                   ",
"                  3 3 3 4 3 3 3 2 3 2 4 e Q $.' ' ' ' ' $.o.w 2 3 3 3 2 3 3 3 4 2 =                 ",
"                + & = 4 3 3 3 3 3 3 3 3 3 4 9 q e q e q 6 4 3 3 3 3 3 3 3 2 1 * @ #                 ",
"                < , - & & = 2 3 3 3 3 3 4 3 3 3 3 3 3 3 3 3 3 3 3 3 2 = * & $ : | &.                ",
"                p.e.1.O., % # & 1 3 3 3 3 3 3 3 3 3 3 3 3 3 3 3 3 = # $ : | &.w.p.p.p.              ",
"                p.p.p.p.w.1.O., - 1 3 3 3 3 3 3 3 3 3 3 4 2 3 3 3 1 K &.w.p.p.p.p.p.p.              ",
"              p.p.p.p.p.p.p.p.8.0 3 3 3 3 3 3 3 3 3 4 3 3 3 3 3 4 3 L w.p.p.p.p.p.p.p.p.            ",
"              i.p.p.p.p.p.p.w...4 3 3 3 3 3 3 3 3 4 3 3 3 3 3 3 3 3 4  .w.i.p.p.p.i.p.p.            ",
"            p.p.p.p.p.p.p.w.X.4 3 3 3 3 3 3 3 3 3 3 3 3 3 3 3 4 3 3 3 4  .w.p.p.p.e.p.p.            ",
"            p.p.p.p.p.p.p.2.7 3 3 3 3 3 3 3 3 3 3 3 3 3 3 3 3 3 3 3 3 3 J 8.p.p.i.p.i.p.p.          ",
"            p.0.q.q.9.q.e.e.@.5 3 3 3 3 3 3 3 3 3 3 3 3 3 3 2 2 3 3 3 J 1.p.0.q.9.7.q.0.p.          ",
"            i.e.0.w.w.e.i.i.q.Q ; ; ; ; ; ; ; ; ; ; ; ; ; ; ; p ; > > $.e.p.p.e.e.e.e.e.            ",
"            p.p.p.p.p.p.i.i.q.m y r t t r r y r t t t t t t O f r r y m e.i.p.p.p.p.p.p.            ",
"              p.p.p.p.p.i.i.3.G S S S S S S S S D     S S S S S S S F H t.i.p.p.p.p.p.p.            ",
"              p.p.p.i.a.i.p.d.Y U U U U U U U U U     Y I I U U U U U Y 3.0.e.p.p.p.p.              ",
"                  e.a.a.p.4.E I I I I I I I I I U     U I I I I I I I I R s.t.                      ",
"                            A A A A A A A A A A A     A Z A A A Z Z A A Z Z                         ",
"                            . D C C C C C C C C C     D V V V V C D . D D V                         ",
"                        t t t t t t t t O t t t O     f f t t t O t t t t t t                       ",
"                        t t t t t t t t f t t t f     f t t t t t t t t t t t t                     "
};
