/* XPM */
static char *_2a3660a90074384efd0e8237ab2cac5ogRzuGymsJ8hEK0s[] = {
/* columns rows colors chars-per-pixel */
"50 50 253 2 ",
"   c None",
".  c #23AA5D",
"X  c #27AF60",
"o  c #29AE60",
"O  c #2FAC61",
"+  c #3EAF66",
"@  c #25B562",
"#  c #25B563",
"$  c #26B864",
"%  c #29BF69",
"&  c #2ABF69",
"*  c #36B768",
"=  c #3CB568",
"-  c #5DB672",
";  c #6BBA77",
":  c #6CB977",
">  c #77BD7C",
",  c #2AC16A",
"<  c #2BC46C",
"1  c #2DC86E",
"2  c #2DC96F",
"3  c #2EC96F",
"4  c #3EC36C",
"5  c #3FC36D",
"6  c #2DCB70",
"7  c #2ECB70",
"8  c #2ACC70",
"9  c #2BCC70",
"0  c #2CCC71",
"q  c #2DCC71",
"w  c #2CCD71",
"e  c #2DCD71",
"r  c #2ECC71",
"t  c #31CC72",
"y  c #32CC72",
"u  c #33CC73",
"i  c #32CD73",
"p  c #33CD73",
"a  c #35CD73",
"s  c #3BCA73",
"d  c #3CCD75",
"f  c #3ECD75",
"g  c #3DCD76",
"h  c #3FCE77",
"j  c #43C46E",
"k  c #40CA74",
"l  c #42CE77",
"z  c #43CE77",
"x  c #4CC977",
"c  c #52C673",
"v  c #57C779",
"b  c #63C77C",
"n  c #6DC67E",
"m  c #B7804B",
"M  c #B7824F",
"N  c #B8814C",
"B  c #B8824C",
"V  c #B9824C",
"C  c #B8824D",
"Z  c #B9824D",
"A  c #B9834D",
"S  c #BA834D",
"D  c #BA834E",
"F  c #BA844E",
"G  c #BB844E",
"H  c #BC844D",
"J  c #BC854E",
"K  c #BD854E",
"L  c #BC854F",
"P  c #BD854F",
"I  c #BD864F",
"U  c #BE864E",
"Y  c #BF864E",
"T  c #BE864F",
"R  c #BF864F",
"E  c #BF874F",
"W  c #A58C50",
"Q  c #A58C51",
"!  c #A68C50",
"~  c #A48C52",
"^  c #A58C52",
"/  c #A88E53",
"(  c #B38254",
")  c #AF945A",
"_  c #9A866D",
"`  c #9B866D",
"'  c #9A866E",
"]  c #9C866C",
"[  c #9D8C76",
"{  c #A08567",
"}  c #A38B6E",
"|  c #C08750",
" . c #C08850",
".. c #C18850",
"X. c #C28850",
"o. c #C28950",
"O. c #C38950",
"+. c #C38951",
"@. c #C08952",
"#. c #C38A52",
"$. c #C48A51",
"%. c #C58B51",
"&. c #C48B52",
"*. c #C58C53",
"=. c #C18B54",
"-. c #C68E57",
";. c #C99158",
":. c #CA925A",
">. c #C8935C",
",. c #CD9861",
"<. c #CD9862",
"1. c #D09B65",
"2. c #D6A46E",
"3. c #D7A771",
"4. c #D8A771",
"5. c #D8A872",
"6. c #D8AC7A",
"7. c #D8AD7A",
"8. c #D9AD7A",
"9. c #DAAD7B",
"0. c #DEB07B",
"q. c #DCB07D",
"w. c #DEB27F",
"e. c #677E87",
"r. c #627E8A",
"t. c #627F8A",
"y. c #637F8A",
"u. c #2982BE",
"i. c #2A82BE",
"p. c #2B83BE",
"a. c #7CC581",
"s. c #60D180",
"d. c #69D283",
"f. c #7AD388",
"g. c #7BD389",
"h. c #7AD489",
"j. c #7BD489",
"k. c #3B96D2",
"l. c #3E96D0",
"z. c #3D96D2",
"x. c #3C97D2",
"c. c #3C97D3",
"v. c #3396D8",
"b. c #3298DC",
"n. c #3398DC",
"m. c #3498DC",
"M. c #3499DC",
"N. c #419BD5",
"B. c #59A1CC",
"V. c #52A3D5",
"C. c #B8BF8C",
"Z. c #C4BE8F",
"A. c #D3BD92",
"S. c #D6BC92",
"D. c #D7BC93",
"F. c #E1B581",
"G. c #E3B884",
"H. c #E3B986",
"J. c #E7BD8A",
"K. c #E6BD8B",
"L. c #80C481",
"P. c #80C482",
"I. c #82C482",
"U. c #9BC187",
"Y. c #98C589",
"T. c #89D28C",
"R. c #A6C98E",
"E. c #ADCF93",
"W. c #A4D393",
"Q. c #A5D795",
"!. c #A8D896",
"~. c #BDD297",
"^. c #BCD69A",
"/. c #B1D899",
"(. c #BBD99C",
"). c #BCDA9D",
"_. c #BDDA9D",
"`. c #BEDA9D",
"'. c #CFCD9A",
"]. c #CCD39D",
"[. c #E2C592",
"{. c #EBC290",
"}. c #EDC795",
"|. c #E8C79A",
" X c #E5CB9F",
".X c #EDCF9D",
"XX c #F0CA99",
"oX c #F0CB99",
"OX c #F1CB9A",
"+X c #F3CF9E",
"@X c #DAD7A3",
"#X c #D3DBA3",
"$X c #D4DCA4",
"%X c #D5DCA4",
"&X c #D6DCA5",
"*X c #D8DAA3",
"=X c #C5CCBD",
"-X c #C9CCBB",
";X c #CCCEBB",
":X c #E7CBA0",
">X c #E5CCA4",
",X c #E8CBA0",
"<X c #E9CBA0",
"1X c #EED1A5",
"2X c #EFD2A5",
"3X c #EFD2A6",
"4X c #EEDEAC",
"5X c #F7D3A3",
"6X c #F0D3A6",
"7X c #F1D3A7",
"8X c #F2D3A7",
"9X c #F8D6A6",
"0X c #F9D7A7",
"qX c #F6D8AB",
"wX c #F7D9AB",
"eX c #F3DDAC",
"rX c #F6DFAE",
"tX c #FAD8A8",
"yX c #FBD9AA",
"uX c #FBDAAB",
"iX c #FBDDAD",
"pX c #FBDCAE",
"aX c #FBDDAE",
"sX c #F8DEAE",
"dX c #F9DFAF",
"fX c #FADEAF",
"gX c #FDDCAD",
"hX c #FDDCAF",
"jX c #FCDDAF",
"kX c #FCDEAF",
"lX c #FDDEAF",
"zX c #FEDFAF",
"xX c #E5D5B4",
"cX c #E5D7B6",
"vX c #FDDEB0",
"bX c #FCDFB0",
"nX c #FDDFB0",
"mX c #FFDEB0",
"MX c #FEDFB0",
"NX c #FFDFB1",
"BX c #FBE0B0",
"VX c #FCE0B0",
"CX c #FCE0B1",
"ZX c #FCE1B1",
"AX c #FFE0B0",
"SX c #FFE1B0",
"DX c #FEE0B1",
"FX c #FFE0B1",
"GX c #FFE1B1",
"HX c #FFE2B0",
"JX c #FFE0B2",
"KX c #FFE1B2",
"LX c #FFE2B2",
/* pixels */
"                                                                                                    ",
"                                                                                                    ",
"                                                                                                    ",
"                                                                                                    ",
"                                                                                                    ",
"                                                                                                    ",
"                                                                                                    ",
"                                                                  +.%.+.o.E S C                     ",
"                                                        %.+.%.+.+.%.+.O.S M C                       ",
"                                                +.+.+.%.+.%.+.%.+.L S C C C C                       ",
"                                        %.+.%.+.+.%.+.+.+.O.o.L C C C C C C C                       ",
"                                  %.+.%.+.%.+.o.%.+.+.O.L S C C C C C C C C C                       ",
"                              +.+.+.%.+.%.+.O.o.| S L C C C C C C C C C C C C                       ",
"                            +.+.o.o.E O.L S S S C V V C C C C C C C C C C C C                       ",
"                          C C L S S M C C C C C C C C C C C C C C C C C C C C                       ",
"                      C C C C C M C C C C C C C C C C C C C C C C C C C C C C L                     ",
"                      H C C C C m m S B C C C C C C C C C C C C C C C C C C C o.                    ",
"                    O.L C C C C S M B B C C C C C C C C C C C C C C C C C C C o.                    ",
"                    +.L C C C C C S B B C C C C C C C C C C C C C C C C C C S +.                    ",
"                    +.O.C C C C C ( B B C C C C C C C C C C C C C C C C C C E +.                    ",
"                    +.+.L C C C C C C C C C C C C C C C C C C C C C C C C S o.+.                    ",
"                    %.+.L C C C C C C C C C C C C C C C C C C C C C C C C E +.%.                    ",
"                      +.+.L C C C C C C C C C C C C C C C C C C C C C C S o.%.+.                    ",
"                      :.+.o.C C C C C C C C C C C C C C C C C C C C C C | +.%.                      ",
"                      XX4.+.o.C C C C C C C C C C C C C C C C C C C C L +.%.                        ",
"                      VX0X5.+.| C C C C C C C C C C C C C C C C C C L o.<.H.                        ",
"                        VXgXF.:.| V C C C C C C C C C C C C C C S E +.2.+XVX                        ",
"                        VXVXmXXX4.-.L C C C C C C C C C C C V L +.1.J.zXVX                          ",
"                        VXVXVXVXgXXX0.<.=.L C V m m V C S o.>.5.{.yXVXVXBXW.                        ",
"                        !.4XVXBXzXVXVX0XXXK.q.8.6.8.8.q.H.}.5XiXVXVXVXrX/.h 0                       ",
"                    t 0 a s.g.g.g.g.j.E. X<X:X:X X<X X<X<X X'.T.h.h.j.d.a t 0 t 0                   ",
"                  0 0 t 0 0 9 9 9 9 9 s L.C.A.D.D.D.D.D.Z.U.v 0 9 2 0 0 0 0 t 0 2 ,                 ",
"                X # & 1 7 7 0 0 e e e 0 t k b a.I.I.I.n x t 0 e e 0 t 3 0 0 1 # o O                 ",
"                > : = o # & 7 t 3 t t 0 e 3 e e 0 0 0 0 0 0 t 3 e t e e t 0 * - Y.].                ",
"                VXbX@XR.: = 7 7 t 0 3 t e t 0 e e 3 0 t e t t 0 e 3 e t 0 a W.eXVXJXVX              ",
"                mXJXVXJXbX^.h 7 e e e 0 e 0 t 3 e t 0 0 e e 3 0 e t 0 0 0 p `.JXVXVXJX              ",
"              VXVXJXVXJXmX$Xz 0 3 e e 0 t 0 0 0 e t 0 t 3 e e t e t 0 t 3 e `.JXVXJXVXJX            ",
"              VXJXVXJXVXJX$Xz 0 t 0 e t 0 3 t t t 0 0 t e e e e t 0 0 t e a `.VXJXVXJXVX            ",
"            VXVXVXJXmXVXJX$Xz 0 0 t e e 0 t 0 0 3 e e e t 0 t 3 3 e e e t t `.VXVXJXVXJX            ",
"            VXVXmXmXbXbXmX$Xz 0 e e e e e 3 0 2 e e e e e e e e e e e e e a ).VXmXVXVXJXVX          ",
"            mXwX3X3X3X7XmX*Xc 4 4 4 4 j 4 4 4 j 4 4 4 j 4 4 4 j 4 j 4 4 4 j ].8X3X7X7XqXVX          ",
"            VXVXbXmXmXmXJX.X) ~ ! ! ! ! ! ! ! ! ! ~ ! ! ! ! ! ! ! ! ! ! W W [.VXbXiXmXmX            ",
"              VXVXVXJXVXVX>X[ ' ] ] ] ' ' ' ] ' ] C ( ] ' ] ' ' ' ' _ _ ' } |.VXmXVXJXVX            ",
"              JXVXJXVXJXVX-Xk.k.c.c.c.c.c.c.c.c.c.    c.c.c.c.c.x.x.k.k.k.B.xXVXVXVXVXJX            ",
"                VXVXVXVXVX-XM.M.b.b.b.m.m.m.b.b.m.    M.M.M.m.m.m.m.m.m.v.N.xXSXJXVXVX              ",
"                            v.m.v.v.v.v.v.v.v.v.v.    m.v.v.v.v.v.v.v.v.v.k.;X                      ",
"                            p.p.p.p.p.p.p.p.p.p.p.    p.p.p.p.p.p.p.p.p.k.u.                        ",
"                            t.t.y.y.y.y.y.y.y.y.y.    y.y.y.y.y.t.t.t.t.y.e.                        ",
"                        C C C C C C C C C C C C C     C C C C C C C C C C C C                       ",
"                        C C C C C C C C C C C C C     C C C C C C C C C C C C C                     "
};
