/* XPM */
static char *_3673cfa1c484f26a1e2562d1ee1e34eYnkqGSuoWC4moFN1[] = {
/* columns rows colors chars-per-pixel */
"50 50 133 2 ",
"   c None",
".  c #3F465B",
"X  c #40475C",
"o  c #434A5F",
"O  c #454C61",
"+  c #484F65",
"@  c #495065",
"#  c #4D5469",
"$  c #51576C",
"%  c #535A6E",
"&  c #575E71",
"*  c #585E74",
"=  c #596076",
"-  c #5D647A",
";  c #646B7F",
":  c #666C83",
">  c #686E85",
",  c #6B7286",
"<  c #6A7088",
"1  c #71778C",
"2  c #73798F",
"3  c #787E8F",
"4  c #717790",
"5  c #757B93",
"6  c #797F97",
"7  c #797F98",
"8  c #7B8196",
"9  c #7C829A",
"0  c #818796",
"q  c #828897",
"w  c #80869E",
"e  c #848A9C",
"r  c #898F9D",
"t  c #8B919F",
"y  c #858BA1",
"u  c #888EA0",
"i  c #8E94A2",
"p  c #8D93AB",
"a  c #9096A3",
"s  c #9197AB",
"d  c #9399AB",
"f  c #989EAF",
"g  c #9197B0",
"h  c #949AB1",
"j  c #999FB7",
"k  c #999FB8",
"l  c #9CA2B6",
"z  c #9EA4BC",
"x  c #A0A6B6",
"c  c #A3A9B7",
"v  c #A0A6BE",
"b  c #A4AABC",
"n  c #A8AEBD",
"m  c #ABB1BE",
"M  c #A5ABC2",
"N  c #A9AEC2",
"B  c #ADB3C5",
"V  c #AFB4C8",
"C  c #B1B6C4",
"Z  c #B4B9C5",
"A  c #B0B6C9",
"S  c #B5BBCB",
"D  c #B8BECD",
"F  c #B8BEC9",
"G  c #BABFD0",
"H  c #BBC0CC",
"J  c #BBC1CD",
"K  c #BAC0CE",
"L  c #BCC1CC",
"P  c #BCC1CD",
"I  c #BCC2CD",
"U  c #BDC2CD",
"Y  c #BDC3CD",
"T  c #BEC3CE",
"R  c #BEC4CE",
"E  c #BFC4CF",
"W  c #BFC5CF",
"Q  c #BCC1CC",
"!  c #BAC0D0",
"~  c #BCC1D1",
"^  c #BEC3D3",
"/  c #BFC5D2",
"(  c #BEC4D3",
")  c #BEC4D4",
"_  c #BFC4D4",
"`  c #BFC5D4",
"'  c #BEC4D4",
"]  c #C0C5D0",
"[  c #C1C6D1",
"{  c #C2C7D0",
"}  c #C0C6D5",
"|  c #C1C6D6",
" . c #C1C6D5",
".. c #C3C8D1",
"X. c #C3C9D1",
"o. c #C4C9D1",
"O. c #C4C9D2",
"+. c #C4CAD2",
"@. c #C5CAD2",
"#. c #C5CBD2",
"$. c #C5CBD3",
"%. c #C3C8D6",
"&. c #C3C9D7",
"*. c #C7CCD4",
"=. c #C4C9D3",
"-. c #C8CDD5",
";. c #C5CAD9",
":. c #C6CCD8",
">. c #C7CDD9",
",. c #C6CCD9",
"<. c #C9CED8",
"1. c #C8CDDA",
"2. c #C8CEDA",
"3. c #C9CEDA",
"4. c #C8CDDA",
"5. c #CDD2DB",
"6. c #CBD0DC",
"7. c #CED3DC",
"8. c #CFD4DE",
"9. c #CCD2DC",
"0. c #D1D6DF",
"q. c #D2D7E0",
"w. c #D2D7E1",
"e. c #D2D7E1",
"r. c #D3D8E0",
"t. c #D2D8E1",
"y. c #D3D8E1",
"u. c #D4D9E1",
"i. c #D5DAE1",
"p. c #D4D9E2",
"a. c #D7DCE3",
"s. c #D6DBE4",
"d. c #D4D9E1",
/* pixels */
"      o o o o o o o o o o O o o o o o o o o o o o o o o o o o o o o o o o o o o o o o o o o o       ",
"      o o O o o o o o o o o o o o o o o o X o o o o o o o o o o o o o o o o o o o o o o o o o       ",
"    o o o o o X . . . . X X . . . . o . X . X X X X X X X X X X . . . . X . . . . . X o o o o o     ",
"o o O o o o X o X X X X X X X X X X X X X X X X X o X o X X X X . . . . o X X X X X X X o o o o O o ",
"o o o o O + # # & & & & & & & & % = % = & & & & % % $ % % & & & & & % = & & & & = & & & # O o o o o ",
"O o o O + & : 5 q t i i i i i i i t i i t a a i e 5 1 8 r i a i i i i i i i i i t a a q ; # X X o o ",
"o o o . # : y l B R +.+.+.+.` %.#.#.+.+.#.#.#.X.C l h b F +.#.o.+.+.X.+.+.X.%.%.#.<.-.m q % X X o O ",
"o o . o $ 4 l S ;.7.d.d.q.q.e.e.0.0.0.i.0.0.7.<.[ S A J <.0.i.0.d.d.7.d.d.0.e.s.0.0.7.Z r % X X o o ",
"o o . . % q C :.:.^ ^ ( ) ) ) ) ^ ^ } } } G B n B J &.&.} ` ` ` _ _ _ _ _ _ _ _ ^ F B d 1 $ X X o o ",
"o O . . % t ] 0.( B M M M M M M M M M M M k u y f J 8.,.A M M M M M M M M M M M v h y 4 - + O X o o ",
"O o . . = i +.d.~ M l z z z z z z z z z z g 9 7 s Y i.2.V z l z z k z z z z z z j p 6 > * + O X o o ",
"o O . . & i +.d.~ M k z z k z z z z z z z g 9 5 a Y i.<.V z k z z l z z z z z z k u 7 > * + X O o O ",
"o o . . & i +.0.) M z z z z z v z M z z z h w 7 s Y t.1.V z z v z v z z z z v v z p 9 < * # X X o o ",
"o o . . = i +.i.) M z z z z z v z z z M v h y 5 d Y t.1.V z z z v z z v v z v v k p 7 < * @ O X O o ",
"o o . . % t #.0.) M z z z z v z z z z z v d w 6 s Y t.1.V v z z z v v z z v z v k p 9 < * + O X o o ",
"O o . . = t #.0.) M z z v z z v z z z M v h w 6 d D e.;.V z z z z v z z v z v v z p 7 < * + X o o o ",
"o o . X & i +.q.^ M z z v z z v z z z M v g 9 7 s ^ q.2.A v z z v z z v z z v v k p 9 < * + O X o o ",
"o o . X & i +.q.^ M z z z z v z M z z z z h y 7 s J i.2.V z z z z v v z z v v v k p 9 < * + X O o o ",
"o o X X % a +.i.^ M z z v z z z z z z M z g y 7 d Y i.<.V z z z v z v z v v v v k p 9 < * + o X o O ",
"o o X X & a -.i.| M z z z M z M M v z M M h 9 7 d ] i.3.A M k M v v v v v v v v z s 9 > * + o O o o ",
"o o X X & a o.0._ M z z v z v v z z z v z g 9 7 s Y i.<.V v z z v z v v v v v v k p 7 < * + o X o o ",
"o o X o % q m U B k g g g g g h g g h h g p 7 7 u n Y Z z g g g g g g h g h h h g y 6 < * + X O o o ",
"o o X o # , p d p y 9 y 9 y y w y 9 9 y 9 9 5 4 9 p h s u 9 9 y w y w w w w w w 9 7 5 > * + O X o O ",
"o o X o + ; 1 9 7 7 7 7 6 6 6 6 7 7 9 7 9 7 7 5 6 8 9 9 7 7 7 7 6 6 7 7 6 6 6 6 7 7 6 < - + X o o o ",
"o o X o @ - 4 w u s d d d d d d d s d s d d f d p e w y u d d d s d d d d d d d d f d t , # o o o o ",
"o o X o # : w j B F Y Y J J Y D U U U J U U ( Y B j g x C D ] ] J Y Y D Y F D Y H X.] m 8 $ . . o o ",
"o o o X $ < d V } 7.i.i.q.q.q.p.0.0.d.d.0.0.q.7.[ C N A <.0.p.p.t.t.t.e.p.p.0.i.0.i.0.H r % . . O o ",
"o o X o & 8 b ^ ;.,.2.,.<.2.2.2.<.<.<.<.<.:.Y F Z D G } :.1.1.1.1.1.1.;.1.1.<.<.*.:.H c 8 % o . o o ",
"o o . X & e F 6.` A V V V A V V A V V A V M h d c D <.;.D B B V V V V V V V V V B z d 9 : # . . o o ",
"o o . X & i +.0.^ M z z z z z z v z v v z h w 8 d D p.1.A v z z z z z v v z M v l p 9 < * + o o O o ",
"o o . X % i #.d.^ M z k z z z z z z z z z g 9 5 s U s.2.V k k z z z z z z z z z j p 9 : & + o o o o ",
"o o . X = i +.d.^ M z z z z v z z z z v z d w 6 d U p.;.V M k z v z z z z z v z l p 9 < * + o o o o ",
"o o X X & a #.0.( N z z z z v z z v z v v g 9 9 d Y d.2.V z z z v v z v z v v v k p 7 < * @ O O O o ",
"o o X X & i X.0.( N l z z z v z z v v v z j 9 9 d ~ d.,.V z z z z z z z z v v v k p 9 < * @ O . o o ",
"o o X X % i +.i.( M z z v z z v v z v v z h 9 9 d Y d.,.V z z v z z v z v z v v k p 9 < * @ . X o o ",
"o o . X = t +.0.( M z z z z v z z z v v z g 9 9 d J d.2.V z z z v v z v z z v v k p 9 < * + . O o o ",
"o o X X & t #.0._ M z z v v z v z v z v z h 9 9 d H q.2.V v z z z v v z z v v z k p 7 < * @ O X o O ",
"o o X X & a #.0.) M k z z z v z z v v v z j 9 9 d H i.<.V z z z z z z z v z v z k p 9 < * @ X O o o ",
"o o X X & a *.a.) M z v v v v v v v v v v j 9 9 d Y i.2.A z z v M v v v v z M v z p 9 < * + X O o o ",
"o o X X & a *.0.&.M z z v v v z v v v v v g 9 9 d R a.6.A M z v z z v v v v z M z p 7 < * + O X o O ",
"o o . X % r J ,.G v j j l k k l l l z z k p 9 9 i Z 6.( M l j l k k z k k z l z h p 7 < * + X O o o ",
"o o X X % 8 l N z g p p p p p p p p p p p y 9 7 u l m b h p p p p p p p p p p p p y 7 < * # O X o o ",
"o o X o @ ; 9 y w 9 9 9 9 7 9 9 9 9 9 9 9 7 5 4 8 9 u y 9 9 9 9 9 9 7 9 7 9 9 9 7 7 5 < * + . o o o ",
"o o o o @ % : < < < < < < < < < > < < < < < < < < < < < < < < , < < < < < < < < < < < : * + O X O o ",
"o O o o O # $ * * * * * * * * * = = = = = = = = = = * * = = = = * * * * * * * * * = = * # O O . o o ",
"o o o o O O + + @ @ @ + + + @ + @ @ + + + + + + @ @ + + @ O O @ + + + + + # + + @ @ + + O O o O o o ",
"o O o o o o o o o o X o X O O X O . O . . . . O . O . O o o o o o o o o o . O . O . o . O . O . O o ",
"    o o O X o X o o O X o X o o . O . O . O O . O . O . o o o o o X o o . O . O . O . O . O o O     ",
"      o o o o o o o o O o o o O o o O o o o O o o O o o o o o o o o o o o O o o O o o o o O O       ",
"      o O o o o o O o o o o o o o o o o o o o o o o o o o O o o o o o O o o o o o o o o o o O       "
};
